<svg xmlns="http://www.w3.org/2000/svg" xmlns:xlink="http://www.w3.org/1999/xlink" width="1080" zoomAndPan="magnify" viewBox="0 0 810 809.999993" height="1080" preserveAspectRatio="xMidYMid meet" version="1.0"><defs><clipPath id="470746fb98"><path d="M 128.351562 91.273438 L 681.851562 91.273438 L 681.851562 719 L 128.351562 719 Z M 128.351562 91.273438 " clip-rule="nonzero"/></clipPath></defs><g clip-path="url(#470746fb98)"><path fill="#ffffff" d="M 259.621094 296.820312 C 263.605469 300.710938 263.699219 307.09375 259.808594 311.078125 L 226.941406 345.042969 C 223.050781 349.027344 216.667969 349.121094 212.683594 345.234375 L 203.007812 335.839844 C 199.027344 331.980469 198.917969 325.613281 202.773438 321.617188 C 206.632812 317.632812 213 317.523438 216.996094 321.378906 L 219.460938 323.765625 L 245.351562 296.996094 C 249.242188 293.027344 255.621094 292.933594 259.621094 296.820312 Z M 174.75 367.453125 L 174.75 274.601562 C 174.75 269.015625 179.28125 264.484375 184.863281 264.484375 L 277.71875 264.484375 C 283.300781 264.484375 287.835938 269.015625 287.835938 274.601562 L 287.835938 367.46875 C 287.835938 373.054688 283.300781 377.585938 277.71875 377.585938 L 184.863281 377.585938 C 179.28125 377.570312 174.75 373.054688 174.75 367.453125 Z M 194.980469 357.339844 L 267.605469 357.339844 L 267.605469 284.699219 L 194.980469 284.699219 Z M 319.605469 284.714844 L 541.949219 284.714844 C 547.53125 284.714844 552.0625 280.183594 552.0625 274.601562 C 552.0625 269.015625 547.53125 264.484375 541.949219 264.484375 L 319.605469 264.484375 C 314.023438 264.484375 309.492188 269.015625 309.492188 274.601562 C 309.492188 280.183594 314.023438 284.714844 319.605469 284.714844 Z M 319.605469 331.148438 L 492.644531 331.148438 C 498.226562 331.148438 502.757812 326.617188 502.757812 321.035156 C 502.757812 315.453125 498.226562 310.921875 492.644531 310.921875 L 319.605469 310.921875 C 314.023438 310.921875 309.492188 315.453125 309.492188 321.035156 C 309.492188 326.617188 314.023438 331.148438 319.605469 331.148438 Z M 439.371094 519.007812 L 439.371094 550.90625 C 439.371094 556.144531 435.308594 560.582031 430.007812 560.972656 L 399.320312 563.308594 C 398.425781 566.257812 397.390625 569.113281 396.246094 571.871094 C 395.085938 574.679688 393.785156 577.421875 392.339844 580.136719 L 411.925781 602.953125 C 415.847656 606.90625 415.847656 613.289062 411.894531 617.226562 L 389.34375 639.777344 C 385.644531 643.445312 379.667969 643.726562 375.640625 640.292969 L 352.273438 620.21875 C 349.605469 621.632812 346.847656 622.933594 344.007812 624.109375 L 343.960938 624.109375 C 341.183594 625.253906 338.347656 626.273438 335.429688 627.167969 L 333.140625 657.386719 C 333 662.84375 328.53125 667.234375 323.023438 667.234375 L 291.128906 667.234375 C 285.890625 667.234375 281.453125 663.191406 281.058594 657.875 L 278.722656 627.167969 C 275.773438 626.273438 272.921875 625.238281 270.160156 624.09375 C 267.304688 622.902344 264.546875 621.601562 261.894531 620.1875 L 239.09375 639.777344 C 235.140625 643.695312 228.757812 643.695312 224.824219 639.746094 L 202.257812 617.195312 C 198.585938 613.492188 198.304688 607.519531 201.738281 603.488281 L 221.8125 580.105469 C 220.371094 577.40625 219.050781 574.648438 217.90625 571.839844 C 216.761719 569.082031 215.726562 566.210938 214.832031 563.277344 L 184.613281 560.988281 C 179.15625 560.847656 174.765625 556.378906 174.765625 550.875 L 174.765625 518.976562 C 174.765625 513.738281 178.828125 509.300781 184.128906 508.90625 L 214.832031 506.570312 C 215.679688 503.84375 216.621094 501.160156 217.6875 498.558594 L 217.90625 498.007812 C 219.066406 495.203125 220.371094 492.457031 221.8125 489.746094 L 202.226562 466.925781 C 198.304688 462.976562 198.304688 456.59375 202.257812 452.65625 L 224.808594 430.105469 C 228.507812 426.433594 234.484375 426.152344 238.515625 429.585938 L 261.894531 449.660156 C 264.390625 448.34375 266.960938 447.121094 269.644531 445.992188 L 270.175781 445.753906 C 272.9375 444.609375 275.804688 443.574219 278.738281 442.683594 L 281.027344 412.460938 C 281.167969 407.003906 285.640625 402.613281 291.144531 402.613281 L 323.039062 402.613281 C 328.277344 402.613281 332.714844 406.675781 333.109375 411.976562 L 335.445312 442.683594 C 338.394531 443.574219 341.246094 444.609375 344.007812 445.753906 C 346.816406 446.933594 349.574219 448.234375 352.257812 449.660156 L 375.074219 430.058594 C 379.027344 426.136719 385.410156 426.136719 389.34375 430.089844 L 411.894531 452.640625 C 415.566406 456.339844 415.847656 462.316406 412.414062 466.347656 L 392.324219 489.730469 C 393.65625 492.253906 394.898438 494.824219 395.996094 497.460938 L 396.230469 497.992188 C 397.375 500.753906 398.410156 503.625 399.304688 506.554688 L 429.507812 508.84375 C 434.996094 509.035156 439.371094 513.503906 439.371094 519.007812 Z M 419.140625 528.371094 L 390.664062 526.207031 C 385.863281 525.84375 382.101562 522.191406 381.425781 517.628906 C 380.484375 513.613281 379.199219 509.644531 377.597656 505.773438 L 377.410156 505.269531 C 375.75 501.332031 373.773438 497.585938 371.53125 494.042969 C 369.097656 490.214844 369.570312 485.351562 372.378906 482.074219 L 391.007812 460.355469 L 381.660156 451.007812 L 359.957031 469.65625 C 356.367188 472.730469 351.238281 472.839844 347.550781 470.203125 C 344.007812 467.976562 340.246094 466.03125 336.292969 464.402344 L 336.261719 464.386719 C 332.167969 462.707031 327.980469 461.375 323.730469 460.417969 C 319.277344 459.429688 316.171875 455.652344 315.859375 451.324219 L 313.664062 422.828125 L 300.488281 422.828125 L 298.324219 451.324219 C 297.964844 456.121094 294.3125 459.886719 289.746094 460.558594 C 285.734375 461.5 281.765625 462.785156 277.90625 464.386719 L 277.40625 464.574219 C 273.578125 466.191406 269.832031 468.179688 266.175781 470.503906 C 262.132812 473.058594 256.957031 472.398438 253.679688 469.183594 L 232.492188 450.992188 L 223.144531 460.339844 L 241.792969 482.042969 C 244.863281 485.636719 244.976562 490.761719 242.339844 494.449219 C 240.144531 497.945312 238.199219 501.726562 236.539062 505.738281 L 236.332031 506.210938 C 234.75 510.101562 233.480469 514.144531 232.570312 518.269531 C 231.582031 522.722656 227.804688 525.828125 223.472656 526.144531 L 194.996094 528.339844 L 194.996094 541.511719 L 223.472656 543.675781 C 228.273438 544.035156 232.035156 547.691406 232.710938 552.253906 C 233.652344 556.269531 234.9375 560.234375 236.539062 564.09375 C 238.277344 568.265625 240.316406 572.203125 242.621094 575.824219 C 245.070312 579.648438 244.582031 584.511719 241.777344 587.789062 L 223.144531 609.507812 L 232.492188 618.855469 L 254.195312 600.210938 C 257.644531 597.261719 262.507812 597.042969 266.160156 599.363281 C 269.957031 601.746094 273.878906 603.816406 277.859375 605.464844 L 277.890625 605.480469 C 281.984375 607.15625 286.171875 608.488281 290.421875 609.445312 C 294.875 610.433594 297.980469 614.214844 298.292969 618.542969 L 300.488281 647.035156 L 313.664062 647.035156 L 315.828125 618.542969 C 316.1875 613.742188 319.839844 609.980469 324.40625 609.304688 C 328.46875 608.363281 332.433594 607.078125 336.261719 605.496094 C 340.308594 603.800781 344.226562 601.746094 347.976562 599.363281 C 352.023438 596.804688 357.195312 597.464844 360.472656 600.679688 L 381.660156 618.871094 L 391.007812 609.523438 L 372.363281 587.820312 C 369.289062 584.230469 369.179688 579.101562 371.8125 575.417969 C 374.007812 571.917969 375.953125 568.140625 377.613281 564.125 C 379.308594 560.046875 380.640625 555.84375 381.597656 551.59375 C 382.585938 547.140625 386.367188 544.035156 390.695312 543.722656 L 419.171875 541.527344 L 419.171875 528.371094 Z M 346.722656 495.296875 C 356.867188 505.441406 363.15625 519.460938 363.15625 534.957031 C 363.15625 550.386719 356.882812 564.375 346.738281 574.554688 L 346.691406 574.601562 C 336.527344 584.746094 322.507812 591.035156 307.078125 591.035156 C 291.597656 591.035156 277.578125 584.761719 267.414062 574.601562 C 257.269531 564.453125 250.980469 550.433594 250.980469 534.941406 C 250.980469 519.476562 257.269531 505.472656 267.414062 495.328125 L 267.464844 495.28125 C 277.609375 485.132812 291.628906 478.84375 307.078125 478.84375 C 322.554688 478.875 336.574219 485.148438 346.722656 495.296875 Z M 342.910156 534.957031 C 342.910156 525.0625 338.894531 516.089844 332.402344 509.597656 C 325.925781 503.121094 316.957031 499.089844 307.046875 499.089844 C 297.117188 499.089844 288.148438 503.105469 281.671875 509.566406 C 275.210938 516.058594 271.195312 525.027344 271.195312 534.941406 C 271.195312 544.835938 275.210938 553.804688 281.703125 560.296875 C 288.195312 566.789062 297.148438 570.804688 307.0625 570.804688 C 316.988281 570.804688 325.957031 566.808594 332.417969 560.34375 L 332.464844 560.296875 C 338.910156 553.851562 342.910156 544.882812 342.910156 534.957031 Z M 624.9375 542.375 L 542.089844 628.015625 L 522.769531 609.320312 C 518.785156 605.464844 512.402344 605.574219 508.546875 609.554688 C 504.6875 613.539062 504.796875 619.921875 508.78125 623.78125 L 535.332031 649.46875 C 539.3125 653.324219 545.695312 653.214844 549.554688 649.230469 L 639.398438 556.363281 C 643.257812 552.378906 643.144531 545.996094 639.164062 542.136719 C 635.164062 538.28125 628.796875 538.390625 624.9375 542.375 Z M 681.472656 511.449219 L 681.472656 619.121094 L 681.441406 619.121094 L 681.441406 619.359375 C 679.527344 690.757812 632.449219 703.210938 586.738281 715.300781 L 579.007812 717.371094 C 578.628906 717.496094 578.269531 717.589844 577.875 717.667969 L 575.996094 718.171875 C 574.269531 718.65625 572.402344 718.703125 570.554688 718.1875 L 569.34375 717.859375 L 138.710938 717.859375 C 133.128906 717.859375 128.597656 713.324219 128.597656 707.742188 L 128.644531 706.816406 L 129.382812 171.851562 C 129.382812 166.28125 133.898438 161.78125 139.449219 161.78125 L 139.449219 161.734375 L 231.550781 161.734375 L 231.550781 144.75 C 231.550781 139.167969 236.082031 134.636719 241.664062 134.636719 L 303.296875 134.636719 C 308.09375 122.984375 315.96875 112.886719 325.894531 105.375 C 337.59375 96.527344 352.117188 91.273438 367.796875 91.273438 C 383.480469 91.273438 398.015625 96.527344 409.714844 105.375 C 419.644531 112.871094 427.515625 122.96875 432.316406 134.621094 L 493.945312 134.621094 C 499.527344 134.621094 504.0625 139.152344 504.0625 144.734375 L 504.0625 161.71875 L 596.164062 161.71875 C 601.746094 161.71875 606.277344 166.25 606.277344 171.835938 L 606.277344 480.742188 C 609.617188 482.40625 613.113281 484.003906 616.738281 485.558594 C 635.679688 493.648438 656.945312 499.640625 671.765625 501.332031 C 677.160156 501.554688 681.472656 506.007812 681.472656 511.449219 Z M 325.957031 134.636719 L 409.652344 134.636719 C 406.4375 129.570312 402.332031 125.101562 397.546875 121.496094 C 389.265625 115.238281 378.949219 111.503906 367.8125 111.503906 C 356.664062 111.503906 346.34375 115.238281 338.0625 121.496094 C 333.28125 125.101562 329.171875 129.554688 325.957031 134.636719 Z M 251.78125 154.867188 L 251.78125 188.835938 L 483.832031 188.835938 L 483.832031 171.851562 C 483.832031 171.835938 483.832031 171.835938 483.832031 171.820312 L 483.832031 154.867188 Z M 148.796875 697.644531 L 508.671875 697.644531 C 484.519531 684.785156 466.5 663.410156 465.074219 620.378906 L 464.996094 619.105469 L 464.996094 511.433594 C 465.011719 506.335938 468.855469 501.945312 474.042969 501.394531 C 488.894531 499.8125 510.507812 493.757812 529.730469 485.558594 C 545.414062 478.859375 559.105469 470.957031 565.285156 463.320312 L 565.878906 462.613281 L 566.320312 462.175781 C 567.132812 461.40625 568.058594 460.796875 569.03125 460.355469 L 569.3125 460.230469 C 570.585938 459.695312 571.902344 459.445312 573.21875 459.445312 C 574.535156 459.445312 575.855469 459.695312 577.109375 460.214844 L 577.421875 460.355469 C 578.410156 460.8125 579.320312 461.40625 580.136719 462.175781 C 580.527344 462.535156 580.824219 462.910156 581.1875 463.320312 C 582.488281 464.917969 584.132812 466.550781 586.046875 468.164062 L 586.046875 181.964844 L 504.0625 181.964844 L 504.0625 198.949219 C 504.0625 204.53125 499.527344 209.0625 493.945312 209.0625 L 241.664062 209.0625 C 239.925781 209.0625 238.277344 208.625 236.851562 207.839844 C 233.699219 206.132812 231.550781 202.792969 231.550781 198.949219 L 231.550781 181.964844 L 149.515625 181.964844 Z M 661.273438 619.121094 L 661.242188 520.167969 C 645.625 517.390625 626.226562 511.558594 608.847656 504.140625 C 603.109375 501.695312 597.558594 499.027344 592.367188 496.238281 C 591.644531 495.9375 590.972656 495.578125 590.359375 495.140625 C 583.882812 491.53125 578.035156 487.691406 573.234375 483.707031 C 564.171875 491.234375 551.421875 498.257812 537.621094 504.140625 C 520.246094 511.558594 500.847656 517.390625 485.226562 520.167969 L 485.210938 619.625 C 487.046875 675.203125 526.535156 685.644531 564.859375 695.792969 L 571.792969 697.644531 L 574.660156 697.644531 L 581.59375 695.792969 C 620.0625 685.613281 659.660156 675.140625 661.273438 619.121094 Z M 661.273438 619.121094 " fill-opacity="1" fill-rule="nonzero"/></g></svg>