<svg xmlns="http://www.w3.org/2000/svg" xmlns:xlink="http://www.w3.org/1999/xlink" width="1080" zoomAndPan="magnify" viewBox="0 0 810 809.999993" height="1080" preserveAspectRatio="xMidYMid meet" version="1.0"><path fill="#ffffff" d="M 222.75 479.921875 C 224.738281 479.921875 226.722656 479.824219 228.703125 479.628906 C 230.683594 479.433594 232.648438 479.140625 234.601562 478.753906 C 236.554688 478.367188 238.480469 477.882812 240.386719 477.304688 C 242.289062 476.726562 244.160156 476.058594 245.996094 475.296875 C 247.835938 474.535156 249.632812 473.6875 251.386719 472.75 C 253.140625 471.808594 254.847656 470.789062 256.5 469.683594 C 258.15625 468.578125 259.75 467.394531 261.289062 466.132812 C 262.828125 464.871094 264.300781 463.535156 265.707031 462.128906 C 267.113281 460.722656 268.449219 459.25 269.710938 457.710938 C 270.972656 456.171875 272.15625 454.578125 273.261719 452.921875 C 274.367188 451.269531 275.390625 449.5625 276.328125 447.808594 C 277.265625 446.054688 278.113281 444.257812 278.875 442.417969 C 279.636719 440.582031 280.304688 438.710938 280.882812 436.804688 C 281.460938 434.902344 281.945312 432.976562 282.332031 431.023438 C 282.722656 429.070312 283.011719 427.105469 283.207031 425.125 C 283.402344 423.144531 283.5 421.160156 283.5 419.171875 C 283.5 417.183594 283.402344 415.195312 283.207031 413.21875 C 283.011719 411.238281 282.722656 409.269531 282.332031 407.320312 C 281.945312 405.367188 281.460938 403.441406 280.882812 401.535156 C 280.304688 399.632812 279.636719 397.761719 278.875 395.921875 C 278.113281 394.085938 277.265625 392.289062 276.328125 390.535156 C 275.390625 388.78125 274.367188 387.074219 273.261719 385.421875 C 272.15625 383.765625 270.972656 382.171875 269.710938 380.632812 C 268.449219 379.09375 267.113281 377.621094 265.707031 376.214844 C 264.300781 374.808594 262.828125 373.472656 261.289062 372.210938 C 259.75 370.949219 258.15625 369.765625 256.5 368.660156 C 254.847656 367.554688 253.140625 366.53125 251.386719 365.59375 C 249.632812 364.65625 247.835938 363.808594 245.996094 363.046875 C 244.160156 362.285156 242.289062 361.613281 240.386719 361.039062 C 238.480469 360.460938 236.554688 359.976562 234.601562 359.589844 C 232.648438 359.199219 230.683594 358.910156 228.703125 358.714844 C 226.722656 358.519531 224.738281 358.421875 222.75 358.421875 C 220.761719 358.421875 218.777344 358.519531 216.796875 358.714844 C 214.816406 358.910156 212.851562 359.199219 210.898438 359.589844 C 208.945312 359.976562 207.019531 360.460938 205.113281 361.039062 C 203.210938 361.613281 201.339844 362.285156 199.503906 363.046875 C 197.664062 363.808594 195.867188 364.65625 194.113281 365.59375 C 192.359375 366.53125 190.652344 367.554688 189 368.660156 C 187.34375 369.765625 185.75 370.949219 184.210938 372.210938 C 182.671875 373.472656 181.199219 374.808594 179.792969 376.214844 C 178.386719 377.621094 177.050781 379.09375 175.789062 380.632812 C 174.527344 382.171875 173.34375 383.765625 172.238281 385.421875 C 171.132812 387.074219 170.109375 388.78125 169.171875 390.535156 C 168.234375 392.289062 167.386719 394.085938 166.625 395.921875 C 165.863281 397.761719 165.195312 399.632812 164.617188 401.535156 C 164.039062 403.441406 163.554688 405.367188 163.167969 407.320312 C 162.777344 409.269531 162.488281 411.238281 162.292969 413.21875 C 162.097656 415.195312 162 417.183594 162 419.171875 C 162 421.160156 162.097656 423.144531 162.292969 425.125 C 162.488281 427.105469 162.777344 429.070312 163.167969 431.023438 C 163.554688 432.976562 164.039062 434.902344 164.617188 436.804688 C 165.195312 438.710938 165.863281 440.582031 166.625 442.417969 C 167.386719 444.257812 168.234375 446.054688 169.171875 447.808594 C 170.109375 449.5625 171.132812 451.269531 172.238281 452.921875 C 173.34375 454.578125 174.527344 456.171875 175.789062 457.710938 C 177.050781 459.25 178.386719 460.722656 179.792969 462.128906 C 181.199219 463.535156 182.671875 464.871094 184.210938 466.132812 C 185.75 467.394531 187.34375 468.578125 189 469.683594 C 190.652344 470.789062 192.359375 471.808594 194.113281 472.75 C 195.867188 473.6875 197.664062 474.535156 199.503906 475.296875 C 201.339844 476.058594 203.210938 476.726562 205.113281 477.304688 C 207.019531 477.882812 208.945312 478.367188 210.898438 478.753906 C 212.851562 479.140625 214.816406 479.433594 216.796875 479.628906 C 218.777344 479.824219 220.761719 479.921875 222.75 479.921875 Z M 222.75 378.671875 C 224.078125 378.671875 225.398438 378.738281 226.71875 378.867188 C 228.039062 378.996094 229.351562 379.191406 230.652344 379.449219 C 231.953125 379.707031 233.238281 380.03125 234.507812 380.414062 C 235.777344 380.800781 237.023438 381.246094 238.25 381.753906 C 239.472656 382.261719 240.671875 382.828125 241.839844 383.453125 C 243.011719 384.078125 244.148438 384.761719 245.25 385.496094 C 246.351562 386.234375 247.417969 387.023438 248.441406 387.863281 C 249.46875 388.707031 250.449219 389.597656 251.386719 390.535156 C 252.324219 391.472656 253.214844 392.453125 254.058594 393.480469 C 254.898438 394.503906 255.6875 395.566406 256.425781 396.671875 C 257.160156 397.773438 257.84375 398.910156 258.46875 400.082031 C 259.09375 401.25 259.660156 402.449219 260.167969 403.671875 C 260.675781 404.898438 261.121094 406.144531 261.507812 407.414062 C 261.890625 408.683594 262.214844 409.96875 262.472656 411.269531 C 262.730469 412.570312 262.925781 413.882812 263.054688 415.203125 C 263.183594 416.523438 263.25 417.84375 263.25 419.171875 C 263.25 420.5 263.183594 421.820312 263.054688 423.140625 C 262.925781 424.460938 262.730469 425.773438 262.472656 427.074219 C 262.214844 428.375 261.890625 429.660156 261.507812 430.929688 C 261.121094 432.199219 260.675781 433.445312 260.167969 434.671875 C 259.660156 435.894531 259.09375 437.09375 258.46875 438.261719 C 257.84375 439.433594 257.160156 440.570312 256.425781 441.671875 C 255.6875 442.773438 254.898438 443.839844 254.058594 444.863281 C 253.214844 445.890625 252.324219 446.871094 251.386719 447.808594 C 250.449219 448.746094 249.46875 449.636719 248.441406 450.480469 C 247.417969 451.320312 246.351562 452.109375 245.25 452.847656 C 244.148438 453.582031 243.011719 454.265625 241.839844 454.890625 C 240.671875 455.515625 239.472656 456.082031 238.25 456.589844 C 237.023438 457.097656 235.777344 457.542969 234.507812 457.929688 C 233.238281 458.3125 231.953125 458.632812 230.652344 458.894531 C 229.351562 459.152344 228.039062 459.347656 226.71875 459.476562 C 225.398438 459.605469 224.078125 459.671875 222.75 459.671875 C 221.421875 459.671875 220.101562 459.605469 218.78125 459.476562 C 217.460938 459.347656 216.148438 459.152344 214.847656 458.894531 C 213.546875 458.632812 212.261719 458.3125 210.992188 457.929688 C 209.722656 457.542969 208.476562 457.097656 207.25 456.589844 C 206.027344 456.082031 204.828125 455.515625 203.660156 454.890625 C 202.488281 454.265625 201.351562 453.582031 200.25 452.847656 C 199.148438 452.109375 198.082031 451.320312 197.058594 450.480469 C 196.03125 449.636719 195.050781 448.746094 194.113281 447.808594 C 193.175781 446.871094 192.285156 445.890625 191.441406 444.863281 C 190.601562 443.839844 189.8125 442.773438 189.074219 441.671875 C 188.339844 440.570312 187.65625 439.433594 187.03125 438.261719 C 186.40625 437.09375 185.839844 435.894531 185.332031 434.671875 C 184.824219 433.445312 184.378906 432.199219 183.992188 430.929688 C 183.609375 429.660156 183.285156 428.375 183.027344 427.074219 C 182.769531 425.773438 182.574219 424.460938 182.445312 423.140625 C 182.316406 421.820312 182.25 420.5 182.25 419.171875 C 182.25 417.84375 182.316406 416.523438 182.445312 415.203125 C 182.574219 413.882812 182.769531 412.570312 183.027344 411.269531 C 183.285156 409.96875 183.609375 408.683594 183.992188 407.414062 C 184.378906 406.144531 184.824219 404.898438 185.332031 403.671875 C 185.839844 402.449219 186.40625 401.25 187.03125 400.082031 C 187.65625 398.910156 188.339844 397.773438 189.074219 396.671875 C 189.8125 395.566406 190.601562 394.503906 191.441406 393.480469 C 192.285156 392.453125 193.175781 391.472656 194.113281 390.535156 C 195.050781 389.597656 196.03125 388.707031 197.058594 387.863281 C 198.082031 387.023438 199.148438 386.234375 200.25 385.496094 C 201.351562 384.761719 202.488281 384.078125 203.660156 383.453125 C 204.828125 382.828125 206.027344 382.261719 207.25 381.753906 C 208.476562 381.246094 209.722656 380.800781 210.992188 380.414062 C 212.261719 380.03125 213.546875 379.707031 214.847656 379.449219 C 216.148438 379.191406 217.460938 378.996094 218.78125 378.867188 C 220.101562 378.738281 221.421875 378.671875 222.75 378.671875 Z M 222.75 378.671875 " fill-opacity="1" fill-rule="nonzero"/><path fill="#ffffff" d="M 587.25 479.921875 C 589.238281 479.921875 591.222656 479.824219 593.203125 479.628906 C 595.183594 479.433594 597.148438 479.140625 599.101562 478.753906 C 601.054688 478.367188 602.980469 477.882812 604.886719 477.304688 C 606.789062 476.726562 608.660156 476.058594 610.496094 475.296875 C 612.335938 474.535156 614.132812 473.6875 615.886719 472.75 C 617.640625 471.808594 619.347656 470.789062 621 469.683594 C 622.65625 468.578125 624.25 467.394531 625.789062 466.132812 C 627.328125 464.871094 628.800781 463.535156 630.207031 462.128906 C 631.613281 460.722656 632.949219 459.25 634.210938 457.710938 C 635.472656 456.171875 636.65625 454.578125 637.761719 452.921875 C 638.867188 451.269531 639.890625 449.5625 640.828125 447.808594 C 641.765625 446.054688 642.613281 444.257812 643.375 442.417969 C 644.136719 440.582031 644.804688 438.710938 645.382812 436.804688 C 645.960938 434.902344 646.445312 432.976562 646.832031 431.023438 C 647.222656 429.070312 647.511719 427.105469 647.707031 425.125 C 647.902344 423.144531 648 421.160156 648 419.171875 C 648 417.183594 647.902344 415.195312 647.707031 413.21875 C 647.511719 411.238281 647.222656 409.269531 646.832031 407.320312 C 646.445312 405.367188 645.960938 403.441406 645.382812 401.535156 C 644.804688 399.632812 644.136719 397.761719 643.375 395.921875 C 642.613281 394.085938 641.765625 392.289062 640.828125 390.535156 C 639.890625 388.78125 638.867188 387.074219 637.761719 385.421875 C 636.65625 383.765625 635.472656 382.171875 634.210938 380.632812 C 632.949219 379.09375 631.613281 377.621094 630.207031 376.214844 C 628.800781 374.808594 627.328125 373.472656 625.789062 372.210938 C 624.25 370.949219 622.65625 369.765625 621 368.660156 C 619.347656 367.554688 617.640625 366.53125 615.886719 365.59375 C 614.132812 364.65625 612.335938 363.808594 610.496094 363.046875 C 608.660156 362.285156 606.789062 361.613281 604.882812 361.039062 C 602.980469 360.460938 601.054688 359.976562 599.101562 359.589844 C 597.148438 359.199219 595.183594 358.910156 593.203125 358.714844 C 591.222656 358.519531 589.238281 358.421875 587.25 358.421875 C 585.261719 358.421875 583.277344 358.519531 581.296875 358.714844 C 579.316406 358.910156 577.347656 359.199219 575.398438 359.589844 C 573.445312 359.976562 571.519531 360.460938 569.613281 361.039062 C 567.710938 361.613281 565.839844 362.285156 564 363.046875 C 562.164062 363.808594 560.367188 364.65625 558.613281 365.59375 C 556.859375 366.53125 555.152344 367.554688 553.5 368.660156 C 551.84375 369.765625 550.25 370.949219 548.710938 372.210938 C 547.171875 373.472656 545.699219 374.808594 544.292969 376.214844 C 542.886719 377.621094 541.550781 379.09375 540.289062 380.632812 C 539.027344 382.171875 537.84375 383.765625 536.738281 385.421875 C 535.632812 387.074219 534.609375 388.78125 533.671875 390.535156 C 532.734375 392.289062 531.886719 394.085938 531.125 395.921875 C 530.363281 397.761719 529.691406 399.632812 529.117188 401.535156 C 528.539062 403.441406 528.054688 405.367188 527.667969 407.320312 C 527.277344 409.269531 526.988281 411.238281 526.792969 413.21875 C 526.597656 415.195312 526.5 417.183594 526.5 419.171875 C 526.5 421.160156 526.597656 423.144531 526.792969 425.125 C 526.988281 427.105469 527.277344 429.070312 527.667969 431.023438 C 528.054688 432.976562 528.539062 434.902344 529.117188 436.804688 C 529.691406 438.710938 530.363281 440.582031 531.125 442.417969 C 531.886719 444.257812 532.734375 446.054688 533.671875 447.808594 C 534.609375 449.5625 535.632812 451.269531 536.738281 452.921875 C 537.84375 454.578125 539.027344 456.171875 540.289062 457.710938 C 541.550781 459.25 542.886719 460.722656 544.292969 462.128906 C 545.699219 463.535156 547.171875 464.871094 548.710938 466.132812 C 550.25 467.394531 551.84375 468.578125 553.5 469.683594 C 555.152344 470.789062 556.859375 471.808594 558.613281 472.75 C 560.367188 473.6875 562.164062 474.535156 564 475.296875 C 565.839844 476.058594 567.710938 476.726562 569.613281 477.304688 C 571.519531 477.882812 573.445312 478.367188 575.398438 478.753906 C 577.347656 479.140625 579.316406 479.433594 581.296875 479.628906 C 583.277344 479.824219 585.261719 479.921875 587.25 479.921875 Z M 587.25 378.671875 C 588.578125 378.671875 589.898438 378.738281 591.21875 378.867188 C 592.539062 378.996094 593.851562 379.191406 595.152344 379.449219 C 596.453125 379.707031 597.738281 380.03125 599.007812 380.414062 C 600.277344 380.800781 601.523438 381.246094 602.75 381.753906 C 603.972656 382.261719 605.171875 382.828125 606.339844 383.453125 C 607.511719 384.078125 608.648438 384.761719 609.75 385.496094 C 610.851562 386.234375 611.917969 387.023438 612.941406 387.863281 C 613.96875 388.707031 614.949219 389.597656 615.886719 390.535156 C 616.824219 391.472656 617.714844 392.453125 618.558594 393.480469 C 619.398438 394.503906 620.1875 395.566406 620.925781 396.671875 C 621.660156 397.773438 622.34375 398.910156 622.96875 400.082031 C 623.59375 401.25 624.160156 402.449219 624.667969 403.671875 C 625.175781 404.898438 625.621094 406.144531 626.007812 407.414062 C 626.390625 408.683594 626.714844 409.96875 626.972656 411.269531 C 627.230469 412.570312 627.425781 413.882812 627.554688 415.203125 C 627.683594 416.523438 627.75 417.84375 627.75 419.171875 C 627.75 420.5 627.683594 421.820312 627.554688 423.140625 C 627.425781 424.460938 627.230469 425.773438 626.972656 427.074219 C 626.714844 428.375 626.390625 429.660156 626.007812 430.929688 C 625.621094 432.199219 625.175781 433.445312 624.667969 434.671875 C 624.160156 435.894531 623.59375 437.09375 622.96875 438.261719 C 622.34375 439.433594 621.660156 440.570312 620.925781 441.671875 C 620.1875 442.773438 619.398438 443.839844 618.558594 444.863281 C 617.714844 445.890625 616.824219 446.871094 615.886719 447.808594 C 614.949219 448.746094 613.96875 449.636719 612.941406 450.480469 C 611.917969 451.320312 610.851562 452.109375 609.75 452.847656 C 608.648438 453.582031 607.511719 454.265625 606.339844 454.890625 C 605.171875 455.515625 603.972656 456.082031 602.75 456.589844 C 601.523438 457.097656 600.277344 457.542969 599.007812 457.929688 C 597.738281 458.3125 596.453125 458.632812 595.152344 458.894531 C 593.851562 459.152344 592.539062 459.347656 591.21875 459.476562 C 589.898438 459.605469 588.578125 459.671875 587.25 459.671875 C 585.921875 459.671875 584.601562 459.605469 583.28125 459.476562 C 581.960938 459.347656 580.648438 459.152344 579.347656 458.894531 C 578.046875 458.632812 576.761719 458.3125 575.492188 457.929688 C 574.222656 457.542969 572.976562 457.097656 571.75 456.589844 C 570.527344 456.082031 569.328125 455.515625 568.160156 454.890625 C 566.988281 454.265625 565.851562 453.582031 564.75 452.847656 C 563.644531 452.109375 562.582031 451.320312 561.558594 450.480469 C 560.53125 449.636719 559.550781 448.746094 558.613281 447.808594 C 557.675781 446.871094 556.785156 445.890625 555.941406 444.863281 C 555.101562 443.839844 554.3125 442.773438 553.574219 441.671875 C 552.839844 440.570312 552.15625 439.433594 551.53125 438.261719 C 550.90625 437.09375 550.339844 435.894531 549.832031 434.671875 C 549.324219 433.445312 548.878906 432.199219 548.492188 430.929688 C 548.109375 429.660156 547.785156 428.375 547.527344 427.074219 C 547.269531 425.773438 547.074219 424.460938 546.945312 423.140625 C 546.816406 421.820312 546.75 420.5 546.75 419.171875 C 546.75 417.84375 546.816406 416.523438 546.945312 415.203125 C 547.074219 413.882812 547.269531 412.570312 547.527344 411.269531 C 547.785156 409.96875 548.109375 408.683594 548.492188 407.414062 C 548.878906 406.144531 549.324219 404.898438 549.832031 403.671875 C 550.339844 402.449219 550.90625 401.25 551.53125 400.082031 C 552.15625 398.910156 552.839844 397.773438 553.574219 396.671875 C 554.3125 395.566406 555.101562 394.503906 555.941406 393.480469 C 556.785156 392.453125 557.675781 391.472656 558.613281 390.535156 C 559.550781 389.597656 560.53125 388.707031 561.558594 387.863281 C 562.582031 387.023438 563.648438 386.234375 564.75 385.496094 C 565.851562 384.761719 566.988281 384.078125 568.160156 383.453125 C 569.328125 382.828125 570.527344 382.261719 571.75 381.753906 C 572.976562 381.246094 574.222656 380.800781 575.492188 380.414062 C 576.761719 380.03125 578.046875 379.707031 579.347656 379.449219 C 580.648438 379.191406 581.960938 378.996094 583.28125 378.867188 C 584.601562 378.738281 585.921875 378.671875 587.25 378.671875 Z M 587.25 378.671875 " fill-opacity="1" fill-rule="nonzero"/><path fill="#ffffff" d="M 718.875 662.171875 L 691.539062 662.171875 C 693.789062 659.273438 695.523438 656.089844 696.734375 652.625 C 697.949219 649.160156 698.578125 645.59375 698.625 641.921875 L 698.625 550.796875 C 698.625 517.28125 666.832031 490.046875 627.75 490.046875 L 546.75 490.046875 C 511.71875 490.046875 482.558594 512.019531 476.988281 540.671875 L 435.375 540.671875 C 433.816406 540.664062 432.335938 540.996094 430.929688 541.671875 C 429.527344 542.347656 428.34375 543.296875 427.375 544.519531 C 426.417969 545.753906 425.777344 547.132812 425.457031 548.660156 C 425.136719 550.191406 425.167969 551.710938 425.554688 553.226562 L 452.789062 662.171875 L 357.210938 662.171875 L 384.75 553.226562 C 385.132812 551.710938 385.167969 550.191406 384.847656 548.660156 C 384.527344 547.132812 383.886719 545.753906 382.925781 544.519531 C 382.433594 543.894531 381.878906 543.335938 381.253906 542.84375 C 380.628906 542.351562 379.957031 541.9375 379.234375 541.605469 C 378.515625 541.269531 377.765625 541.023438 376.984375 540.867188 C 376.207031 540.707031 375.417969 540.644531 374.625 540.671875 L 333.011719 540.671875 C 327.441406 512.019531 298.28125 490.046875 263.25 490.046875 L 182.25 490.046875 C 143.167969 490.046875 111.375 517.28125 111.375 550.796875 L 111.375 641.921875 C 111.421875 645.59375 112.050781 649.160156 113.265625 652.625 C 114.476562 656.089844 116.210938 659.273438 118.460938 662.171875 L 91.125 662.171875 C 90.460938 662.171875 89.800781 662.238281 89.148438 662.367188 C 88.496094 662.496094 87.863281 662.6875 87.25 662.941406 C 86.636719 663.195312 86.050781 663.507812 85.5 663.878906 C 84.945312 664.246094 84.4375 664.667969 83.964844 665.136719 C 83.496094 665.605469 83.074219 666.117188 82.707031 666.671875 C 82.335938 667.222656 82.023438 667.808594 81.769531 668.421875 C 81.515625 669.035156 81.324219 669.667969 81.195312 670.320312 C 81.066406 670.972656 81 671.632812 81 672.296875 C 81 672.960938 81.066406 673.621094 81.195312 674.273438 C 81.324219 674.925781 81.515625 675.558594 81.769531 676.171875 C 82.023438 676.785156 82.335938 677.367188 82.707031 677.921875 C 83.074219 678.476562 83.496094 678.984375 83.964844 679.457031 C 84.4375 679.925781 84.945312 680.347656 85.5 680.714844 C 86.050781 681.085938 86.636719 681.398438 87.25 681.652344 C 87.863281 681.90625 88.496094 682.097656 89.148438 682.226562 C 89.800781 682.355469 90.460938 682.421875 91.125 682.421875 L 718.875 682.421875 C 719.539062 682.421875 720.199219 682.355469 720.851562 682.226562 C 721.503906 682.097656 722.136719 681.90625 722.75 681.652344 C 723.363281 681.398438 723.949219 681.085938 724.5 680.714844 C 725.054688 680.347656 725.5625 679.925781 726.035156 679.457031 C 726.503906 678.984375 726.925781 678.476562 727.292969 677.921875 C 727.664062 677.367188 727.976562 676.785156 728.230469 676.171875 C 728.484375 675.558594 728.675781 674.925781 728.804688 674.273438 C 728.933594 673.621094 729 672.960938 729 672.296875 C 729 671.632812 728.933594 670.972656 728.804688 670.320312 C 728.675781 669.667969 728.484375 669.035156 728.230469 668.421875 C 727.976562 667.808594 727.664062 667.222656 727.292969 666.671875 C 726.925781 666.117188 726.503906 665.605469 726.035156 665.136719 C 725.5625 664.667969 725.054688 664.246094 724.5 663.878906 C 723.949219 663.507812 723.363281 663.195312 722.75 662.941406 C 722.136719 662.6875 721.503906 662.496094 720.851562 662.367188 C 720.199219 662.238281 719.539062 662.171875 718.875 662.171875 Z M 253.125 662.171875 L 162 662.171875 C 145.496094 662.171875 131.625 652.855469 131.625 641.921875 L 131.625 550.796875 C 131.625 528.421875 154.304688 510.296875 182.25 510.296875 L 263.25 510.296875 C 264.523438 510.222656 265.800781 510.195312 267.078125 510.222656 C 268.355469 510.246094 269.628906 510.316406 270.898438 510.4375 C 272.171875 510.5625 273.4375 510.730469 274.695312 510.949219 C 275.953125 511.167969 277.199219 511.4375 278.4375 511.75 C 279.675781 512.066406 280.898438 512.429688 282.109375 512.835938 C 283.320312 513.246094 284.511719 513.703125 285.6875 514.203125 C 286.863281 514.703125 288.015625 515.25 289.148438 515.839844 C 290.28125 516.429688 291.390625 517.058594 292.472656 517.734375 C 293.558594 518.410156 294.617188 519.125 295.644531 519.882812 C 296.675781 520.636719 297.671875 521.433594 298.640625 522.265625 C 299.609375 523.097656 300.542969 523.96875 301.445312 524.871094 C 302.347656 525.777344 303.210938 526.714844 304.039062 527.6875 C 304.871094 528.65625 305.660156 529.660156 306.414062 530.691406 C 307.164062 531.722656 307.875 532.785156 308.546875 533.871094 C 309.21875 534.957031 309.84375 536.070312 310.429688 537.203125 C 311.015625 538.339844 311.554688 539.496094 312.050781 540.671875 L 232.875 540.671875 C 232.300781 540.65625 231.730469 540.6875 231.160156 540.765625 C 230.59375 540.847656 230.035156 540.976562 229.488281 541.152344 C 228.941406 541.328125 228.414062 541.546875 227.902344 541.8125 C 227.394531 542.078125 226.910156 542.382812 226.453125 542.730469 C 225.996094 543.078125 225.570312 543.460938 225.179688 543.882812 C 224.789062 544.300781 224.433594 544.75 224.117188 545.230469 C 223.804688 545.710938 223.53125 546.214844 223.300781 546.742188 C 223.070312 547.265625 222.886719 547.808594 222.75 548.367188 L 204.726562 621.671875 L 182.25 621.671875 L 182.25 591.296875 C 182.25 590.632812 182.183594 589.972656 182.054688 589.320312 C 181.925781 588.667969 181.734375 588.035156 181.480469 587.421875 C 181.226562 586.808594 180.914062 586.222656 180.542969 585.671875 C 180.175781 585.117188 179.753906 584.605469 179.285156 584.136719 C 178.8125 583.667969 178.304688 583.246094 177.75 582.878906 C 177.199219 582.507812 176.613281 582.195312 176 581.941406 C 175.386719 581.6875 174.753906 581.496094 174.101562 581.367188 C 173.449219 581.238281 172.789062 581.171875 172.125 581.171875 C 171.460938 581.171875 170.800781 581.238281 170.148438 581.367188 C 169.496094 581.496094 168.863281 581.6875 168.25 581.941406 C 167.636719 582.195312 167.050781 582.507812 166.5 582.878906 C 165.945312 583.246094 165.4375 583.667969 164.964844 584.136719 C 164.496094 584.605469 164.074219 585.117188 163.707031 585.671875 C 163.335938 586.222656 163.023438 586.808594 162.769531 587.421875 C 162.515625 588.035156 162.324219 588.667969 162.195312 589.320312 C 162.066406 589.972656 162 590.632812 162 591.296875 L 162 631.796875 C 162 632.460938 162.066406 633.121094 162.195312 633.773438 C 162.324219 634.425781 162.515625 635.058594 162.769531 635.671875 C 163.023438 636.285156 163.335938 636.867188 163.707031 637.421875 C 164.074219 637.972656 164.496094 638.484375 164.964844 638.957031 C 165.4375 639.425781 165.945312 639.847656 166.5 640.214844 C 167.050781 640.585938 167.636719 640.898438 168.25 641.152344 C 168.863281 641.40625 169.496094 641.597656 170.148438 641.726562 C 170.800781 641.855469 171.460938 641.921875 172.125 641.921875 L 281.777344 641.921875 C 281.257812 643.394531 280.628906 644.816406 279.886719 646.191406 C 279.148438 647.566406 278.304688 648.878906 277.363281 650.125 C 276.421875 651.367188 275.390625 652.535156 274.265625 653.621094 C 273.144531 654.707031 271.945312 655.699219 270.671875 656.601562 C 269.394531 657.503906 268.058594 658.300781 266.660156 658.996094 C 265.261719 659.691406 263.820312 660.277344 262.332031 660.75 C 260.839844 661.222656 259.324219 661.578125 257.78125 661.816406 C 256.238281 662.054688 254.6875 662.171875 253.125 662.171875 Z M 336.351562 662.171875 L 293.625 662.171875 C 295.269531 660.003906 296.726562 657.714844 297.996094 655.304688 C 299.269531 652.898438 300.332031 650.402344 301.195312 647.820312 C 302.054688 645.238281 302.699219 642.601562 303.128906 639.914062 C 303.558594 637.222656 303.765625 634.519531 303.75 631.796875 C 303.75 631.132812 303.683594 630.472656 303.554688 629.820312 C 303.425781 629.167969 303.234375 628.535156 302.980469 627.921875 C 302.726562 627.308594 302.414062 626.722656 302.042969 626.171875 C 301.675781 625.617188 301.253906 625.105469 300.785156 624.636719 C 300.3125 624.167969 299.804688 623.746094 299.25 623.378906 C 298.699219 623.007812 298.113281 622.695312 297.5 622.441406 C 296.886719 622.1875 296.253906 621.996094 295.601562 621.867188 C 294.949219 621.738281 294.289062 621.671875 293.625 621.671875 L 225.585938 621.671875 L 240.773438 560.921875 L 361.664062 560.921875 Z M 473.648438 662.171875 L 448.335938 560.921875 L 569.226562 560.921875 L 584.414062 621.671875 L 516.375 621.671875 C 515.710938 621.671875 515.050781 621.738281 514.398438 621.867188 C 513.746094 621.996094 513.113281 622.1875 512.5 622.441406 C 511.886719 622.695312 511.300781 623.007812 510.75 623.378906 C 510.195312 623.746094 509.6875 624.167969 509.214844 624.636719 C 508.746094 625.105469 508.324219 625.617188 507.957031 626.171875 C 507.585938 626.722656 507.273438 627.308594 507.019531 627.921875 C 506.765625 628.535156 506.574219 629.167969 506.445312 629.820312 C 506.316406 630.472656 506.25 631.132812 506.25 631.796875 C 506.234375 634.519531 506.441406 637.222656 506.871094 639.914062 C 507.300781 642.601562 507.945312 645.238281 508.804688 647.820312 C 509.667969 650.402344 510.730469 652.898438 512.003906 655.304688 C 513.273438 657.714844 514.730469 660.003906 516.375 662.171875 Z M 678.375 641.921875 C 678.375 652.855469 664.503906 662.171875 648 662.171875 L 556.875 662.171875 C 555.3125 662.171875 553.761719 662.054688 552.21875 661.816406 C 550.675781 661.578125 549.15625 661.222656 547.667969 660.75 C 546.179688 660.277344 544.738281 659.691406 543.339844 658.996094 C 541.941406 658.300781 540.605469 657.503906 539.328125 656.601562 C 538.054688 655.699219 536.855469 654.707031 535.730469 653.621094 C 534.609375 652.535156 533.578125 651.371094 532.636719 650.125 C 531.695312 648.878906 530.851562 647.566406 530.113281 646.191406 C 529.371094 644.816406 528.742188 643.394531 528.222656 641.921875 L 637.875 641.921875 C 638.539062 641.921875 639.199219 641.855469 639.851562 641.726562 C 640.503906 641.597656 641.136719 641.40625 641.75 641.152344 C 642.363281 640.898438 642.945312 640.585938 643.5 640.214844 C 644.054688 639.847656 644.5625 639.425781 645.035156 638.957031 C 645.503906 638.484375 645.925781 637.972656 646.292969 637.421875 C 646.664062 636.867188 646.976562 636.285156 647.230469 635.671875 C 647.484375 635.058594 647.675781 634.425781 647.804688 633.773438 C 647.933594 633.121094 648 632.460938 648 631.796875 L 648 591.296875 C 648 590.632812 647.933594 589.972656 647.804688 589.320312 C 647.675781 588.667969 647.484375 588.035156 647.230469 587.421875 C 646.976562 586.808594 646.664062 586.222656 646.292969 585.671875 C 645.925781 585.117188 645.503906 584.605469 645.035156 584.136719 C 644.5625 583.667969 644.054688 583.246094 643.5 582.878906 C 642.945312 582.507812 642.363281 582.195312 641.75 581.941406 C 641.136719 581.6875 640.503906 581.496094 639.851562 581.367188 C 639.199219 581.238281 638.539062 581.171875 637.875 581.171875 C 637.210938 581.171875 636.550781 581.238281 635.898438 581.367188 C 635.246094 581.496094 634.613281 581.6875 634 581.941406 C 633.386719 582.195312 632.800781 582.507812 632.25 582.878906 C 631.695312 583.246094 631.183594 583.667969 630.714844 584.136719 C 630.246094 584.605469 629.824219 585.117188 629.457031 585.671875 C 629.085938 586.222656 628.773438 586.808594 628.519531 587.421875 C 628.265625 588.035156 628.074219 588.667969 627.945312 589.320312 C 627.816406 589.972656 627.75 590.632812 627.75 591.296875 L 627.75 621.671875 L 605.273438 621.671875 L 587.25 548.367188 C 587.113281 547.808594 586.929688 547.265625 586.699219 546.742188 C 586.46875 546.214844 586.195312 545.710938 585.882812 545.230469 C 585.566406 544.75 585.210938 544.300781 584.820312 543.882812 C 584.429688 543.460938 584.003906 543.078125 583.546875 542.730469 C 583.089844 542.382812 582.605469 542.078125 582.097656 541.8125 C 581.585938 541.546875 581.058594 541.328125 580.511719 541.152344 C 579.964844 540.976562 579.40625 540.847656 578.839844 540.765625 C 578.269531 540.6875 577.699219 540.65625 577.125 540.671875 L 497.949219 540.671875 C 498.445312 539.496094 498.984375 538.339844 499.570312 537.203125 C 500.15625 536.070312 500.78125 534.957031 501.453125 533.871094 C 502.125 532.785156 502.835938 531.722656 503.585938 530.691406 C 504.339844 529.660156 505.128906 528.65625 505.960938 527.6875 C 506.789062 526.714844 507.652344 525.777344 508.554688 524.871094 C 509.457031 523.96875 510.390625 523.097656 511.359375 522.265625 C 512.328125 521.433594 513.324219 520.636719 514.355469 519.882812 C 515.382812 519.125 516.441406 518.410156 517.527344 517.734375 C 518.609375 517.058594 519.71875 516.429688 520.851562 515.839844 C 521.984375 515.25 523.136719 514.703125 524.3125 514.203125 C 525.488281 513.703125 526.679688 513.246094 527.890625 512.835938 C 529.101562 512.429688 530.324219 512.066406 531.5625 511.75 C 532.800781 511.4375 534.046875 511.167969 535.304688 510.949219 C 536.5625 510.730469 537.828125 510.5625 539.101562 510.4375 C 540.371094 510.316406 541.644531 510.246094 542.921875 510.222656 C 544.199219 510.195312 545.476562 510.222656 546.75 510.296875 L 627.75 510.296875 C 655.695312 510.296875 678.375 528.421875 678.375 550.796875 Z M 678.375 641.921875 " fill-opacity="1" fill-rule="nonzero"/><path fill="#ffffff" d="M 541.789062 247.046875 C 541.789062 245.554688 541.753906 244.066406 541.679688 242.574219 C 541.605469 241.085938 541.496094 239.597656 541.351562 238.113281 C 541.203125 236.628906 541.019531 235.152344 540.800781 233.675781 C 540.582031 232.199219 540.328125 230.730469 540.039062 229.269531 C 539.746094 227.804688 539.421875 226.351562 539.058594 224.90625 C 538.695312 223.457031 538.296875 222.023438 537.863281 220.59375 C 537.433594 219.167969 536.964844 217.75 536.460938 216.347656 C 535.960938 214.945312 535.421875 213.550781 534.851562 212.175781 C 534.28125 210.796875 533.675781 209.433594 533.039062 208.085938 C 532.402344 206.738281 531.730469 205.40625 531.027344 204.089844 C 530.324219 202.777344 529.589844 201.476562 528.824219 200.199219 C 528.058594 198.921875 527.261719 197.660156 526.429688 196.421875 C 525.601562 195.179688 524.746094 193.960938 523.855469 192.761719 C 522.96875 191.566406 522.050781 190.390625 521.105469 189.238281 C 520.15625 188.085938 519.183594 186.957031 518.183594 185.851562 C 517.179688 184.746094 516.152344 183.667969 515.097656 182.613281 C 514.042969 181.558594 512.964844 180.527344 511.859375 179.527344 C 510.753906 178.527344 509.625 177.550781 508.472656 176.605469 C 507.320312 175.660156 506.144531 174.742188 504.945312 173.855469 C 503.75 172.964844 502.53125 172.109375 501.289062 171.277344 C 500.050781 170.449219 498.789062 169.652344 497.511719 168.886719 C 496.230469 168.121094 494.933594 167.382812 493.621094 166.683594 C 492.304688 165.980469 490.972656 165.308594 489.625 164.671875 C 488.277344 164.03125 486.914062 163.429688 485.535156 162.859375 C 484.15625 162.289062 482.765625 161.75 481.363281 161.25 C 479.957031 160.746094 478.542969 160.277344 477.117188 159.84375 C 475.6875 159.414062 474.25 159.015625 472.804688 158.652344 C 471.359375 158.289062 469.902344 157.964844 468.441406 157.671875 C 466.980469 157.382812 465.507812 157.125 464.035156 156.90625 C 462.558594 156.6875 461.078125 156.507812 459.59375 156.359375 C 458.113281 156.214844 456.625 156.105469 455.136719 156.03125 C 453.644531 155.957031 452.15625 155.921875 450.664062 155.921875 C 440.847656 155.921875 431.296875 157.507812 422.011719 160.679688 C 420.855469 159.546875 419.667969 158.445312 418.453125 157.378906 C 417.242188 156.308594 416 155.273438 414.730469 154.269531 C 413.460938 153.265625 412.164062 152.296875 410.84375 151.363281 C 409.523438 150.429688 408.175781 149.53125 406.808594 148.667969 C 405.4375 147.804688 404.046875 146.980469 402.636719 146.191406 C 401.222656 145.402344 399.789062 144.652344 398.335938 143.941406 C 396.882812 143.230469 395.414062 142.554688 393.921875 141.921875 C 392.433594 141.289062 390.929688 140.695312 389.410156 140.140625 C 387.890625 139.585938 386.355469 139.074219 384.808594 138.601562 C 383.257812 138.132812 381.699219 137.699219 380.128906 137.3125 C 378.558594 136.921875 376.980469 136.578125 375.390625 136.273438 C 373.800781 135.96875 372.203125 135.703125 370.601562 135.484375 C 369 135.265625 367.390625 135.089844 365.777344 134.953125 C 364.167969 134.820312 362.550781 134.730469 360.933594 134.683594 C 359.316406 134.632812 357.699219 134.628906 356.082031 134.667969 C 354.464844 134.707031 352.847656 134.785156 351.234375 134.910156 C 349.621094 135.035156 348.011719 135.203125 346.410156 135.414062 C 344.804688 135.621094 343.207031 135.875 341.617188 136.167969 C 340.023438 136.464844 338.441406 136.800781 336.871094 137.179688 C 335.296875 137.5625 333.734375 137.980469 332.183594 138.445312 C 330.632812 138.90625 329.097656 139.410156 327.574219 139.953125 C 326.050781 140.5 324.542969 141.082031 323.046875 141.707031 C 321.554688 142.332031 320.082031 142.996094 318.625 143.699219 C 317.167969 144.402344 315.730469 145.144531 314.3125 145.925781 C 312.894531 146.703125 311.496094 147.523438 310.125 148.375 C 308.75 149.230469 307.398438 150.121094 306.074219 151.046875 C 304.746094 151.972656 303.445312 152.933594 302.167969 153.929688 C 300.894531 154.925781 299.644531 155.953125 298.425781 157.015625 C 297.203125 158.078125 296.011719 159.171875 294.847656 160.296875 C 293.6875 161.421875 292.554688 162.578125 291.453125 163.761719 C 290.351562 164.949219 289.285156 166.164062 288.25 167.40625 C 287.210938 168.648438 286.210938 169.917969 285.242188 171.214844 C 284.273438 172.511719 283.339844 173.832031 282.441406 175.175781 C 281.542969 176.523438 280.679688 177.890625 279.855469 179.285156 C 279.03125 180.675781 278.242188 182.089844 277.492188 183.523438 C 276.742188 184.957031 276.03125 186.40625 275.355469 187.878906 C 274.683594 189.351562 274.050781 190.839844 273.457031 192.34375 C 272.863281 193.851562 272.3125 195.371094 271.800781 196.90625 C 271.285156 198.441406 270.816406 199.988281 270.386719 201.546875 C 269.957031 203.105469 269.566406 204.675781 269.21875 206.257812 C 268.875 207.839844 268.570312 209.425781 268.308594 211.023438 C 268.046875 212.621094 267.828125 214.222656 267.652344 215.832031 C 267.472656 217.4375 267.339844 219.050781 267.25 220.667969 C 267.160156 222.28125 267.113281 223.898438 267.109375 225.515625 C 267.105469 227.136719 267.140625 228.753906 267.222656 230.367188 C 267.304688 231.984375 267.429688 233.597656 267.597656 235.207031 C 267.765625 236.816406 267.976562 238.417969 268.230469 240.019531 C 268.480469 241.617188 268.777344 243.207031 269.113281 244.789062 C 269.453125 246.371094 269.832031 247.941406 270.253906 249.503906 C 270.675781 251.066406 271.136719 252.617188 271.640625 254.15625 C 272.144531 255.691406 272.691406 257.214844 273.277344 258.722656 C 273.863281 260.234375 274.488281 261.722656 275.152344 263.199219 C 275.816406 264.675781 276.519531 266.132812 277.261719 267.570312 C 278.003906 269.007812 278.785156 270.425781 279.601562 271.820312 C 280.417969 273.214844 281.273438 274.589844 282.164062 275.941406 C 283.054688 277.292969 283.980469 278.617188 284.941406 279.917969 C 285.90625 281.21875 286.898438 282.496094 287.929688 283.742188 C 288.960938 284.992188 290.019531 286.210938 291.117188 287.402344 C 292.210938 288.59375 293.335938 289.757812 294.492188 290.886719 C 295.648438 292.019531 296.832031 293.121094 298.046875 294.1875 C 299.261719 295.257812 300.507812 296.292969 301.777344 297.296875 C 303.046875 298.296875 304.34375 299.265625 305.664062 300.199219 C 306.984375 301.132812 308.332031 302.03125 309.699219 302.894531 C 311.070312 303.753906 312.460938 304.578125 313.875 305.367188 L 309.421875 336.753906 C 309.253906 337.71875 309.230469 338.6875 309.347656 339.65625 C 309.460938 340.628906 309.710938 341.5625 310.097656 342.460938 C 310.484375 343.359375 310.992188 344.183594 311.617188 344.9375 C 312.242188 345.6875 312.960938 346.335938 313.773438 346.878906 C 315.488281 348.03125 317.378906 348.605469 319.445312 348.601562 C 321.25 348.613281 322.9375 348.175781 324.507812 347.285156 L 378.574219 316.300781 C 382.007812 315.5625 385.382812 314.617188 388.699219 313.464844 C 391.707031 316.335938 394.894531 318.988281 398.265625 321.421875 C 401.636719 323.851562 405.160156 326.042969 408.828125 327.996094 C 412.5 329.945312 416.289062 331.636719 420.191406 333.070312 C 424.09375 334.503906 428.074219 335.664062 432.136719 336.550781 L 486 367.230469 C 487.570312 368.121094 489.257812 368.558594 491.0625 368.546875 C 493.128906 368.550781 495.019531 367.976562 496.734375 366.824219 C 497.546875 366.28125 498.265625 365.632812 498.890625 364.882812 C 499.515625 364.128906 500.019531 363.304688 500.40625 362.40625 C 500.792969 361.507812 501.042969 360.574219 501.160156 359.601562 C 501.277344 358.632812 501.25 357.664062 501.085938 356.699219 L 496.632812 325.3125 C 500.039062 323.324219 503.300781 321.121094 506.421875 318.707031 C 509.542969 316.292969 512.492188 313.6875 515.273438 310.890625 C 518.054688 308.09375 520.644531 305.128906 523.042969 301.996094 C 525.4375 298.863281 527.621094 295.589844 529.59375 292.171875 C 531.566406 288.753906 533.308594 285.222656 534.820312 281.582031 C 536.332031 277.9375 537.605469 274.210938 538.632812 270.402344 C 539.664062 266.597656 540.441406 262.738281 540.96875 258.828125 C 541.496094 254.917969 541.769531 250.992188 541.789062 247.046875 Z M 372.703125 296.457031 C 371.605469 296.691406 370.5625 297.0625 369.5625 297.570312 L 332 319.136719 L 334.125 301.214844 C 334.226562 300.183594 334.175781 299.160156 333.960938 298.140625 C 333.75 297.125 333.390625 296.164062 332.882812 295.261719 C 332.378906 294.355469 331.746094 293.546875 330.992188 292.835938 C 330.234375 292.125 329.390625 291.542969 328.453125 291.089844 C 327.203125 290.488281 325.96875 289.847656 324.75 289.175781 C 323.535156 288.5 322.339844 287.789062 321.167969 287.042969 C 319.992188 286.296875 318.84375 285.519531 317.714844 284.707031 C 316.585938 283.890625 315.484375 283.046875 314.40625 282.167969 C 313.328125 281.289062 312.277344 280.382812 311.25 279.441406 C 310.226562 278.5 309.230469 277.53125 308.261719 276.53125 C 307.296875 275.535156 306.359375 274.507812 305.449219 273.453125 C 304.542969 272.402344 303.667969 271.320312 302.824219 270.214844 C 301.980469 269.109375 301.171875 267.980469 300.394531 266.828125 C 299.617188 265.675781 298.875 264.5 298.164062 263.304688 C 297.457031 262.105469 296.785156 260.890625 296.148438 259.652344 C 295.511719 258.417969 294.914062 257.164062 294.351562 255.890625 C 293.789062 254.621094 293.261719 253.332031 292.777344 252.03125 C 292.289062 250.730469 291.839844 249.414062 291.429688 248.085938 C 291.023438 246.753906 290.652344 245.414062 290.320312 244.066406 C 289.992188 242.714844 289.699219 241.355469 289.449219 239.988281 C 289.199219 238.621094 288.988281 237.246094 288.820312 235.867188 C 288.648438 234.484375 288.519531 233.101562 288.433594 231.714844 C 288.34375 230.324219 288.296875 228.9375 288.289062 227.546875 C 288.285156 226.15625 288.316406 224.765625 288.394531 223.378906 C 288.46875 221.988281 288.585938 220.605469 288.742188 219.222656 C 288.898438 217.839844 289.09375 216.464844 289.332031 215.09375 C 289.570312 213.726562 289.847656 212.363281 290.167969 211.007812 C 290.484375 209.65625 290.839844 208.3125 291.238281 206.980469 C 291.636719 205.648438 292.070312 204.328125 292.546875 203.019531 C 293.019531 201.714844 293.535156 200.421875 294.085938 199.144531 C 294.636719 197.867188 295.222656 196.609375 295.847656 195.367188 C 296.472656 194.125 297.132812 192.902344 297.828125 191.699219 C 298.527344 190.496094 299.257812 189.3125 300.023438 188.152344 C 300.789062 186.992188 301.589844 185.855469 302.425781 184.742188 C 303.257812 183.628906 304.121094 182.542969 305.019531 181.480469 C 305.917969 180.417969 306.84375 179.382812 307.804688 178.375 C 308.761719 177.367188 309.75 176.386719 310.765625 175.4375 C 311.78125 174.488281 312.824219 173.570312 313.890625 172.683594 C 314.960938 171.792969 316.058594 170.9375 317.175781 170.113281 C 318.296875 169.289062 319.441406 168.5 320.609375 167.742188 C 321.773438 166.988281 322.960938 166.265625 324.171875 165.578125 C 325.382812 164.894531 326.609375 164.242188 327.855469 163.628906 C 329.105469 163.015625 330.367188 162.4375 331.652344 161.898438 C 332.933594 161.359375 334.226562 160.855469 335.539062 160.390625 C 336.851562 159.929688 338.171875 159.503906 339.507812 159.117188 C 340.84375 158.734375 342.191406 158.386719 343.546875 158.082031 C 344.90625 157.773438 346.269531 157.507812 347.640625 157.28125 C 349.011719 157.054688 350.390625 156.871094 351.773438 156.726562 C 353.15625 156.582031 354.542969 156.476562 355.929688 156.414062 C 357.320312 156.347656 358.710938 156.328125 360.101562 156.34375 C 361.492188 156.363281 362.878906 156.421875 364.265625 156.523438 C 365.652344 156.621094 367.035156 156.765625 368.414062 156.945312 C 369.792969 157.125 371.164062 157.347656 372.53125 157.609375 C 373.894531 157.871094 375.253906 158.175781 376.601562 158.515625 C 377.949219 158.859375 379.285156 159.242188 380.609375 159.660156 C 381.9375 160.082031 383.246094 160.542969 384.546875 161.039062 C 385.84375 161.539062 387.125 162.074219 388.394531 162.648438 C 389.660156 163.21875 390.910156 163.832031 392.140625 164.476562 C 393.371094 165.125 394.582031 165.808594 395.773438 166.523438 C 396.960938 167.242188 398.132812 167.996094 399.277344 168.78125 C 400.421875 169.570312 401.546875 170.390625 402.644531 171.242188 C 403.742188 172.097656 404.8125 172.980469 405.859375 173.898438 C 406.90625 174.8125 407.925781 175.757812 408.914062 176.734375 C 409.90625 177.710938 410.867188 178.714844 411.796875 179.746094 C 412.730469 180.78125 413.628906 181.839844 414.496094 182.925781 C 415.367188 184.011719 416.203125 185.121094 417.007812 186.257812 C 417.808594 187.390625 418.578125 188.546875 419.316406 189.726562 C 420.050781 190.910156 420.75 192.109375 421.414062 193.332031 C 422.078125 194.550781 422.707031 195.792969 423.300781 197.050781 C 423.890625 198.308594 424.445312 199.582031 424.960938 200.875 C 425.480469 202.164062 425.957031 203.46875 426.398438 204.789062 C 426.835938 206.109375 427.238281 207.4375 427.601562 208.78125 C 427.960938 210.125 428.285156 211.476562 428.566406 212.835938 C 428.847656 214.199219 429.089844 215.566406 429.292969 216.945312 C 429.492188 218.320312 429.652344 219.699219 429.773438 221.085938 C 429.894531 222.472656 429.972656 223.859375 430.011719 225.25 C 430.050781 226.636719 430.046875 228.027344 430.003906 229.417969 C 429.960938 230.808594 429.878906 232.195312 429.753906 233.582031 C 429.628906 234.964844 429.460938 236.34375 429.257812 237.71875 C 429.050781 239.09375 428.804688 240.464844 428.515625 241.824219 C 428.230469 243.183594 427.902344 244.535156 427.539062 245.878906 C 427.171875 247.21875 426.765625 248.546875 426.320312 249.867188 C 425.878906 251.183594 425.394531 252.488281 424.875 253.777344 C 424.351562 255.066406 423.792969 256.335938 423.199219 257.59375 C 422.601562 258.851562 421.96875 260.085938 421.300781 261.308594 C 420.632812 262.527344 419.925781 263.722656 419.1875 264.902344 C 418.449219 266.078125 417.675781 267.234375 416.867188 268.367188 C 416.0625 269.5 415.21875 270.605469 414.347656 271.6875 C 413.476562 272.769531 412.570312 273.828125 411.636719 274.855469 C 410.703125 275.886719 409.738281 276.886719 408.746094 277.859375 C 407.75 278.832031 406.730469 279.777344 405.679688 280.6875 C 404.632812 281.601562 403.554688 282.480469 402.457031 283.332031 C 401.355469 284.179688 400.230469 284.996094 399.082031 285.78125 C 397.929688 286.5625 396.761719 287.3125 395.566406 288.027344 C 394.375 288.738281 393.160156 289.417969 391.929688 290.0625 C 390.695312 290.703125 389.445312 291.308594 388.175781 291.878906 C 386.90625 292.449219 385.621094 292.980469 384.324219 293.472656 C 383.023438 293.96875 381.710938 294.421875 380.382812 294.839844 C 379.054688 295.253906 377.71875 295.632812 376.371094 295.96875 C 375.019531 296.304688 373.664062 296.605469 372.296875 296.863281 Z M 481.34375 310.933594 C 480.40625 311.386719 479.5625 311.96875 478.808594 312.679688 C 478.050781 313.390625 477.421875 314.199219 476.914062 315.105469 C 476.40625 316.011719 476.046875 316.972656 475.835938 317.988281 C 475.625 319.003906 475.570312 320.027344 475.671875 321.058594 L 478.203125 338.980469 L 440.640625 317.921875 C 439.640625 317.414062 438.59375 317.042969 437.5 316.808594 C 432.222656 315.777344 427.128906 314.15625 422.21875 311.949219 C 417.3125 309.746094 412.71875 307.011719 408.441406 303.746094 C 409.703125 302.945312 410.941406 302.109375 412.160156 301.246094 C 413.382812 300.382812 414.578125 299.488281 415.753906 298.566406 C 416.929688 297.644531 418.082031 296.691406 419.210938 295.714844 C 420.339844 294.734375 421.441406 293.726562 422.519531 292.695312 C 423.601562 291.660156 424.652344 290.601562 425.679688 289.515625 C 426.707031 288.429688 427.707031 287.320312 428.679688 286.183594 C 429.652344 285.050781 430.59375 283.890625 431.511719 282.710938 C 432.425781 281.53125 433.3125 280.328125 434.167969 279.101562 C 435.023438 277.878906 435.851562 276.632812 436.644531 275.367188 C 437.441406 274.101562 438.203125 272.816406 438.933594 271.515625 C 439.667969 270.210938 440.367188 268.890625 441.03125 267.554688 C 441.699219 266.21875 442.332031 264.863281 442.933594 263.496094 C 443.535156 262.128906 444.101562 260.746094 444.632812 259.347656 C 445.164062 257.953125 445.664062 256.542969 446.125 255.121094 C 446.589844 253.703125 447.015625 252.269531 447.410156 250.828125 C 447.800781 249.386719 448.15625 247.9375 448.480469 246.476562 C 448.800781 245.019531 449.085938 243.550781 449.335938 242.078125 C 449.582031 240.605469 449.796875 239.125 449.972656 237.640625 C 450.148438 236.15625 450.289062 234.671875 450.390625 233.179688 C 450.496094 231.6875 450.5625 230.195312 450.589844 228.703125 C 450.621094 227.207031 450.613281 225.714844 450.570312 224.222656 C 450.527344 222.726562 450.445312 221.234375 450.328125 219.746094 C 450.210938 218.257812 450.058594 216.769531 449.867188 215.289062 C 449.675781 213.804688 449.449219 212.328125 449.1875 210.859375 C 448.925781 209.386719 448.625 207.925781 448.289062 206.46875 C 447.957031 205.011719 447.585938 203.5625 447.179688 202.125 C 446.773438 200.6875 446.332031 199.261719 445.855469 197.84375 C 445.378906 196.429688 444.867188 195.023438 444.324219 193.632812 C 443.777344 192.242188 443.199219 190.863281 442.585938 189.503906 C 441.972656 188.140625 441.324219 186.792969 440.644531 185.460938 C 439.96875 184.128906 439.253906 182.816406 438.511719 181.519531 C 437.765625 180.226562 436.992188 178.949219 436.183594 177.691406 C 440.957031 176.671875 445.785156 176.164062 450.664062 176.171875 C 452.652344 176.179688 454.632812 176.273438 456.613281 176.449219 C 458.589844 176.625 460.558594 176.882812 462.515625 177.222656 C 464.472656 177.5625 466.414062 177.984375 468.335938 178.488281 C 470.257812 178.992188 472.15625 179.578125 474.027344 180.242188 C 475.898438 180.90625 477.742188 181.644531 479.550781 182.464844 C 481.363281 183.28125 483.136719 184.175781 484.871094 185.144531 C 486.605469 186.109375 488.296875 187.148438 489.945312 188.257812 C 491.59375 189.367188 493.191406 190.546875 494.742188 191.789062 C 496.289062 193.035156 497.785156 194.339844 499.222656 195.710938 C 500.664062 197.082031 502.042969 198.507812 503.359375 199.996094 C 504.679688 201.480469 505.933594 203.019531 507.125 204.609375 C 508.3125 206.203125 509.433594 207.839844 510.484375 209.527344 C 511.535156 211.210938 512.515625 212.9375 513.421875 214.707031 C 514.328125 216.472656 515.160156 218.277344 515.914062 220.113281 C 516.671875 221.953125 517.347656 223.816406 517.945312 225.714844 C 518.542969 227.609375 519.058594 229.523438 519.496094 231.460938 C 519.933594 233.398438 520.289062 235.351562 520.5625 237.320312 C 520.832031 239.289062 521.023438 241.265625 521.128906 243.25 C 521.234375 245.234375 521.257812 247.21875 521.199219 249.203125 C 521.136719 251.191406 520.996094 253.167969 520.765625 255.144531 C 520.539062 257.117188 520.230469 259.078125 519.839844 261.027344 C 519.445312 262.972656 518.972656 264.902344 518.421875 266.808594 C 517.867188 268.71875 517.234375 270.597656 516.519531 272.453125 C 515.808594 274.308594 515.019531 276.128906 514.152344 277.917969 C 513.289062 279.707031 512.351562 281.457031 511.335938 283.164062 C 510.324219 284.875 509.242188 286.539062 508.089844 288.15625 C 506.9375 289.777344 505.71875 291.34375 504.433594 292.859375 C 503.152344 294.375 501.804688 295.835938 500.398438 297.238281 C 498.992188 298.640625 497.527344 299.980469 496.007812 301.261719 C 494.488281 302.539062 492.917969 303.753906 491.296875 304.902344 C 489.671875 306.050781 488.007812 307.125 486.292969 308.132812 C 484.582031 309.140625 482.828125 310.074219 481.039062 310.933594 Z M 481.34375 310.933594 " fill-opacity="1" fill-rule="nonzero"/><path fill="#ffffff" d="M 344.351562 226.796875 C 344.351562 227.792969 344.253906 228.78125 344.058594 229.757812 C 343.863281 230.738281 343.578125 231.6875 343.195312 232.609375 C 342.8125 233.53125 342.34375 234.40625 341.792969 235.234375 C 341.238281 236.0625 340.609375 236.832031 339.902344 237.535156 C 339.199219 238.242188 338.429688 238.871094 337.601562 239.425781 C 336.773438 239.980469 335.898438 240.445312 334.976562 240.828125 C 334.054688 241.210938 333.105469 241.496094 332.125 241.691406 C 331.148438 241.886719 330.160156 241.984375 329.164062 241.984375 C 328.167969 241.984375 327.179688 241.886719 326.199219 241.691406 C 325.222656 241.496094 324.273438 241.210938 323.351562 240.828125 C 322.429688 240.445312 321.554688 239.980469 320.726562 239.425781 C 319.898438 238.871094 319.128906 238.242188 318.425781 237.535156 C 317.71875 236.832031 317.089844 236.0625 316.535156 235.234375 C 315.980469 234.40625 315.515625 233.53125 315.132812 232.609375 C 314.75 231.6875 314.460938 230.738281 314.269531 229.757812 C 314.074219 228.78125 313.976562 227.792969 313.976562 226.796875 C 313.976562 225.800781 314.074219 224.8125 314.269531 223.832031 C 314.460938 222.855469 314.75 221.90625 315.132812 220.984375 C 315.515625 220.0625 315.980469 219.1875 316.535156 218.359375 C 317.089844 217.53125 317.71875 216.761719 318.425781 216.058594 C 319.128906 215.351562 319.898438 214.722656 320.726562 214.167969 C 321.554688 213.613281 322.429688 213.148438 323.351562 212.765625 C 324.273438 212.382812 325.222656 212.09375 326.199219 211.902344 C 327.179688 211.707031 328.167969 211.609375 329.164062 211.609375 C 330.160156 211.609375 331.148438 211.707031 332.125 211.902344 C 333.105469 212.09375 334.054688 212.382812 334.976562 212.765625 C 335.898438 213.148438 336.773438 213.613281 337.601562 214.167969 C 338.429688 214.722656 339.199219 215.351562 339.902344 216.058594 C 340.609375 216.761719 341.238281 217.53125 341.792969 218.359375 C 342.34375 219.1875 342.8125 220.0625 343.195312 220.984375 C 343.578125 221.90625 343.863281 222.855469 344.058594 223.832031 C 344.253906 224.8125 344.351562 225.800781 344.351562 226.796875 Z M 344.351562 226.796875 " fill-opacity="1" fill-rule="nonzero"/><path fill="#ffffff" d="M 374.726562 226.796875 C 374.726562 227.792969 374.628906 228.78125 374.433594 229.757812 C 374.238281 230.738281 373.953125 231.6875 373.570312 232.609375 C 373.1875 233.53125 372.71875 234.40625 372.167969 235.234375 C 371.613281 236.0625 370.984375 236.832031 370.277344 237.535156 C 369.574219 238.242188 368.804688 238.871094 367.976562 239.425781 C 367.148438 239.980469 366.273438 240.445312 365.351562 240.828125 C 364.429688 241.210938 363.480469 241.496094 362.5 241.691406 C 361.523438 241.886719 360.535156 241.984375 359.539062 241.984375 C 358.542969 241.984375 357.554688 241.886719 356.574219 241.691406 C 355.597656 241.496094 354.648438 241.210938 353.726562 240.828125 C 352.804688 240.445312 351.929688 239.980469 351.101562 239.425781 C 350.273438 238.871094 349.503906 238.242188 348.800781 237.535156 C 348.09375 236.832031 347.464844 236.0625 346.910156 235.234375 C 346.355469 234.40625 345.890625 233.53125 345.507812 232.609375 C 345.125 231.6875 344.835938 230.738281 344.644531 229.757812 C 344.449219 228.78125 344.351562 227.792969 344.351562 226.796875 C 344.351562 225.800781 344.449219 224.8125 344.644531 223.832031 C 344.835938 222.855469 345.125 221.90625 345.507812 220.984375 C 345.890625 220.0625 346.355469 219.1875 346.910156 218.359375 C 347.464844 217.53125 348.09375 216.761719 348.800781 216.058594 C 349.503906 215.351562 350.273438 214.722656 351.101562 214.167969 C 351.929688 213.613281 352.804688 213.148438 353.726562 212.765625 C 354.648438 212.382812 355.597656 212.09375 356.574219 211.902344 C 357.554688 211.707031 358.542969 211.609375 359.539062 211.609375 C 360.535156 211.609375 361.523438 211.707031 362.5 211.902344 C 363.480469 212.09375 364.429688 212.382812 365.351562 212.765625 C 366.273438 213.148438 367.148438 213.613281 367.976562 214.167969 C 368.804688 214.722656 369.574219 215.351562 370.277344 216.058594 C 370.984375 216.761719 371.613281 217.53125 372.167969 218.359375 C 372.71875 219.1875 373.1875 220.0625 373.570312 220.984375 C 373.953125 221.90625 374.238281 222.855469 374.433594 223.832031 C 374.628906 224.8125 374.726562 225.800781 374.726562 226.796875 Z M 374.726562 226.796875 " fill-opacity="1" fill-rule="nonzero"/><path fill="#ffffff" d="M 405.101562 226.796875 C 405.101562 227.792969 405.003906 228.78125 404.808594 229.757812 C 404.613281 230.738281 404.328125 231.6875 403.945312 232.609375 C 403.5625 233.53125 403.09375 234.40625 402.542969 235.234375 C 401.988281 236.0625 401.359375 236.832031 400.652344 237.535156 C 399.949219 238.242188 399.179688 238.871094 398.351562 239.425781 C 397.523438 239.980469 396.648438 240.445312 395.726562 240.828125 C 394.804688 241.210938 393.855469 241.496094 392.875 241.691406 C 391.898438 241.886719 390.910156 241.984375 389.914062 241.984375 C 388.917969 241.984375 387.929688 241.886719 386.949219 241.691406 C 385.972656 241.496094 385.023438 241.210938 384.101562 240.828125 C 383.179688 240.445312 382.304688 239.980469 381.476562 239.425781 C 380.648438 238.871094 379.878906 238.242188 379.175781 237.535156 C 378.46875 236.832031 377.839844 236.0625 377.285156 235.234375 C 376.730469 234.40625 376.265625 233.53125 375.882812 232.609375 C 375.5 231.6875 375.210938 230.738281 375.019531 229.757812 C 374.824219 228.78125 374.726562 227.792969 374.726562 226.796875 C 374.726562 225.800781 374.824219 224.8125 375.019531 223.832031 C 375.210938 222.855469 375.5 221.90625 375.882812 220.984375 C 376.265625 220.0625 376.730469 219.1875 377.285156 218.359375 C 377.839844 217.53125 378.46875 216.761719 379.175781 216.058594 C 379.878906 215.351562 380.648438 214.722656 381.476562 214.167969 C 382.304688 213.613281 383.179688 213.148438 384.101562 212.765625 C 385.023438 212.382812 385.972656 212.09375 386.949219 211.902344 C 387.929688 211.707031 388.917969 211.609375 389.914062 211.609375 C 390.910156 211.609375 391.898438 211.707031 392.875 211.902344 C 393.855469 212.09375 394.804688 212.382812 395.726562 212.765625 C 396.648438 213.148438 397.523438 213.613281 398.351562 214.167969 C 399.179688 214.722656 399.949219 215.351562 400.652344 216.058594 C 401.359375 216.761719 401.988281 217.53125 402.542969 218.359375 C 403.09375 219.1875 403.5625 220.0625 403.945312 220.984375 C 404.328125 221.90625 404.613281 222.855469 404.808594 223.832031 C 405.003906 224.8125 405.101562 225.800781 405.101562 226.796875 Z M 405.101562 226.796875 " fill-opacity="1" fill-rule="nonzero"/></svg>