<svg xmlns="http://www.w3.org/2000/svg" xmlns:xlink="http://www.w3.org/1999/xlink" width="1080" zoomAndPan="magnify" viewBox="0 0 810 809.999993" height="1080" preserveAspectRatio="xMidYMid meet" version="1.0"><defs><clipPath id="fbfb9c1be8"><path d="M 144 478 L 729 478 L 729 733.816406 L 144 733.816406 Z M 144 478 " clip-rule="nonzero"/></clipPath><clipPath id="438e529bf3"><path d="M 399 76.066406 L 611 76.066406 L 611 160 L 399 160 Z M 399 76.066406 " clip-rule="nonzero"/></clipPath></defs><path fill="#ffffff" d="M 164.199219 435.234375 L 172.726562 443.765625 C 171.566406 445.191406 170.507812 446.691406 169.558594 448.269531 C 168.605469 449.847656 167.769531 451.480469 167.050781 453.175781 C 166.332031 454.871094 165.734375 456.605469 165.257812 458.386719 C 164.785156 460.164062 164.4375 461.96875 164.21875 463.792969 C 163.996094 465.621094 163.90625 467.457031 163.945312 469.296875 C 163.984375 471.136719 164.152344 472.964844 164.449219 474.78125 C 164.746094 476.601562 165.167969 478.386719 165.71875 480.144531 C 166.265625 481.902344 166.9375 483.609375 167.726562 485.273438 C 168.515625 486.9375 169.421875 488.535156 170.4375 490.070312 C 171.453125 491.605469 172.570312 493.0625 173.792969 494.4375 C 175.015625 495.816406 176.328125 497.101562 177.730469 498.292969 C 179.132812 499.484375 180.613281 500.570312 182.167969 501.554688 C 183.726562 502.535156 185.34375 503.40625 187.023438 504.160156 C 188.703125 504.914062 190.425781 505.546875 192.195312 506.058594 C 193.960938 506.570312 195.757812 506.953125 197.582031 507.210938 C 199.402344 507.46875 201.234375 507.597656 203.078125 507.597656 C 203.597656 507.597656 204.117188 507.542969 204.640625 507.523438 C 204.621094 508.035156 204.566406 508.550781 204.566406 509.0625 C 204.5625 510.34375 204.625 511.625 204.746094 512.898438 C 204.871094 514.175781 205.058594 515.441406 205.304688 516.699219 C 205.554688 517.957031 205.863281 519.199219 206.234375 520.425781 C 206.605469 521.652344 207.035156 522.859375 207.523438 524.042969 C 208.011719 525.226562 208.558594 526.386719 209.160156 527.515625 C 209.765625 528.648438 210.421875 529.746094 211.132812 530.8125 C 211.84375 531.878906 212.605469 532.90625 213.421875 533.898438 C 214.234375 534.890625 215.09375 535.835938 215.996094 536.746094 C 216.902344 537.652344 217.851562 538.511719 218.84375 539.324219 C 219.832031 540.136719 220.863281 540.898438 221.929688 541.609375 C 222.992188 542.324219 224.089844 542.980469 225.222656 543.585938 C 226.351562 544.1875 227.511719 544.734375 228.695312 545.226562 C 229.878906 545.714844 231.085938 546.144531 232.3125 546.515625 C 233.539062 546.886719 234.78125 547.199219 236.035156 547.449219 C 237.292969 547.695312 238.5625 547.882812 239.835938 548.007812 C 241.113281 548.132812 242.390625 548.191406 243.671875 548.191406 C 244.195312 548.191406 244.714844 548.136719 245.234375 548.117188 C 245.214844 548.628906 245.160156 549.144531 245.160156 549.65625 C 245.15625 550.9375 245.21875 552.21875 245.339844 553.492188 C 245.464844 554.769531 245.648438 556.035156 245.898438 557.292969 C 246.144531 558.550781 246.453125 559.792969 246.824219 561.019531 C 247.195312 562.25 247.625 563.453125 248.113281 564.640625 C 248.601562 565.824219 249.148438 566.980469 249.75 568.113281 C 250.355469 569.246094 251.011719 570.34375 251.722656 571.410156 C 252.433594 572.476562 253.195312 573.503906 254.007812 574.496094 C 254.820312 575.488281 255.679688 576.4375 256.585938 577.34375 C 257.492188 578.25 258.441406 579.109375 259.433594 579.921875 C 260.421875 580.734375 261.453125 581.496094 262.519531 582.210938 C 263.582031 582.921875 264.683594 583.578125 265.8125 584.183594 C 266.945312 584.785156 268.101562 585.332031 269.285156 585.824219 C 270.46875 586.3125 271.675781 586.742188 272.902344 587.113281 C 274.128906 587.484375 275.371094 587.792969 276.628906 588.042969 C 277.886719 588.289062 279.15625 588.476562 280.429688 588.597656 C 281.707031 588.722656 282.984375 588.785156 284.265625 588.78125 C 284.78125 588.78125 285.292969 588.726562 285.808594 588.707031 C 285.734375 590.589844 285.792969 592.46875 285.988281 594.339844 C 286.1875 596.214844 286.515625 598.0625 286.980469 599.890625 C 287.445312 601.714844 288.035156 603.5 288.757812 605.238281 C 289.480469 606.980469 290.320312 608.660156 291.285156 610.277344 C 292.25 611.898438 293.324219 613.4375 294.511719 614.902344 C 295.699219 616.363281 296.984375 617.734375 298.371094 619.011719 C 299.753906 620.289062 301.222656 621.460938 302.777344 622.523438 C 304.332031 623.589844 305.957031 624.535156 307.644531 625.367188 C 309.335938 626.199219 311.078125 626.902344 312.871094 627.480469 C 314.664062 628.058594 316.492188 628.507812 318.347656 628.820312 C 320.207031 629.136719 322.074219 629.316406 323.957031 629.359375 C 325.84375 629.40625 327.71875 629.3125 329.589844 629.085938 C 331.460938 628.859375 333.304688 628.5 335.121094 628.007812 C 336.941406 627.515625 338.714844 626.894531 340.441406 626.144531 C 342.171875 625.394531 343.835938 624.523438 345.4375 623.535156 C 347.042969 622.542969 348.566406 621.445312 350.007812 620.234375 C 353.515625 622.769531 357.328125 624.710938 361.445312 626.046875 C 365.5625 627.386719 369.785156 628.0625 374.117188 628.078125 C 376.296875 628.09375 378.464844 627.921875 380.621094 627.566406 C 382.773438 627.210938 384.878906 626.671875 386.941406 625.953125 C 389.003906 625.234375 390.988281 624.34375 392.894531 623.285156 C 394.800781 622.222656 396.605469 621.007812 398.304688 619.636719 C 400.425781 617.90625 402.339844 615.972656 404.054688 613.835938 C 405.769531 611.703125 407.246094 609.414062 408.480469 606.972656 C 409.714844 604.527344 410.6875 601.984375 411.390625 599.339844 C 412.089844 596.691406 412.511719 594.003906 412.652344 591.269531 C 412.664062 591.105469 412.667969 590.9375 412.671875 590.773438 C 415.308594 591.171875 417.957031 591.292969 420.617188 591.144531 C 423.28125 590.992188 425.898438 590.570312 428.472656 589.878906 C 431.046875 589.1875 433.523438 588.242188 435.898438 587.039062 C 438.277344 585.835938 440.507812 584.402344 442.589844 582.738281 C 444.710938 581.003906 446.628906 579.070312 448.34375 576.9375 C 450.058594 574.800781 451.53125 572.515625 452.769531 570.070312 C 454.003906 567.628906 454.972656 565.082031 455.675781 562.4375 C 456.378906 559.792969 456.800781 557.101562 456.9375 554.367188 C 456.949219 554.199219 456.953125 554.03125 456.957031 553.867188 C 459.59375 554.265625 462.242188 554.386719 464.902344 554.238281 C 467.566406 554.085938 470.183594 553.664062 472.757812 552.972656 C 475.332031 552.28125 477.808594 551.332031 480.1875 550.132812 C 482.566406 548.929688 484.796875 547.496094 486.878906 545.832031 C 488.996094 544.097656 490.914062 542.164062 492.628906 540.03125 C 494.34375 537.894531 495.820312 535.609375 497.054688 533.164062 C 498.289062 530.722656 499.257812 528.175781 499.960938 525.53125 C 500.664062 522.886719 501.085938 520.195312 501.222656 517.460938 C 501.222656 517.417969 501.222656 517.371094 501.222656 517.324219 C 503.617188 517.640625 506.023438 517.742188 508.4375 517.625 C 511.171875 517.484375 513.859375 517.0625 516.507812 516.359375 C 519.152344 515.65625 521.699219 514.6875 524.140625 513.453125 C 526.585938 512.21875 528.875 510.742188 531.007812 509.027344 C 533.144531 507.3125 535.078125 505.398438 536.8125 503.277344 C 549.339844 487.929688 547.738281 464.496094 533.164062 449.933594 L 412.394531 329.164062 C 412.832031 328.742188 413.230469 328.285156 413.585938 327.796875 C 413.945312 327.304688 414.257812 326.789062 414.527344 326.242188 C 414.792969 325.699219 415.011719 325.132812 415.179688 324.550781 C 415.351562 323.96875 415.464844 323.375 415.53125 322.773438 C 415.597656 322.167969 415.609375 321.5625 415.570312 320.957031 C 415.527344 320.351562 415.4375 319.753906 415.292969 319.164062 C 415.148438 318.574219 414.953125 318.003906 414.707031 317.449219 C 414.460938 316.890625 414.171875 316.363281 413.832031 315.859375 C 413.496094 315.351562 413.117188 314.882812 412.695312 314.445312 C 412.277344 314.003906 411.820312 313.605469 411.332031 313.246094 C 410.84375 312.890625 410.324219 312.574219 409.78125 312.308594 C 409.238281 312.039062 408.671875 311.820312 408.089844 311.648438 C 407.507812 311.480469 406.914062 311.359375 406.3125 311.292969 C 405.707031 311.226562 405.105469 311.214844 404.496094 311.253906 C 403.890625 311.292969 403.292969 311.386719 402.703125 311.527344 C 402.113281 311.671875 401.542969 311.867188 400.984375 312.109375 L 298.59375 356.878906 C 297.964844 357.140625 297.320312 357.375 296.667969 357.578125 C 296.015625 357.78125 295.351562 357.949219 294.679688 358.085938 C 294.011719 358.222656 293.335938 358.328125 292.652344 358.398438 C 291.972656 358.46875 291.289062 358.507812 290.605469 358.507812 C 289.921875 358.511719 289.238281 358.484375 288.554688 358.417969 C 287.875 358.355469 287.199219 358.257812 286.527344 358.128906 C 285.855469 357.996094 285.191406 357.832031 284.535156 357.636719 C 283.878906 357.441406 283.234375 357.214844 282.601562 356.957031 C 281.964844 356.695312 281.347656 356.40625 280.742188 356.085938 C 280.136719 355.765625 279.546875 355.417969 278.976562 355.039062 C 278.40625 354.664062 277.855469 354.257812 277.324219 353.824219 C 276.792969 353.394531 276.285156 352.9375 275.800781 352.453125 C 275.3125 351.972656 274.851562 351.46875 274.417969 350.941406 C 273.980469 350.414062 273.570312 349.863281 273.1875 349.296875 C 272.804688 348.730469 272.453125 348.144531 272.128906 347.542969 C 271.800781 346.9375 271.507812 346.320312 271.242188 345.691406 C 270.980469 345.058594 270.746094 344.417969 270.546875 343.761719 C 270.34375 343.109375 270.175781 342.445312 270.039062 341.773438 C 269.90625 341.101562 269.800781 340.425781 269.734375 339.746094 C 269.664062 339.066406 269.628906 338.382812 269.625 337.699219 C 269.625 337.011719 269.65625 336.332031 269.71875 335.648438 C 269.785156 334.96875 269.882812 334.289062 270.015625 333.617188 C 270.148438 332.945312 270.3125 332.285156 270.507812 331.628906 C 270.707031 330.972656 270.933594 330.328125 271.195312 329.695312 C 271.453125 329.0625 271.746094 328.441406 272.066406 327.839844 C 272.386719 327.234375 272.738281 326.648438 273.117188 326.078125 C 273.496094 325.507812 273.902344 324.957031 274.335938 324.425781 C 274.765625 323.894531 275.226562 323.386719 275.707031 322.902344 C 276.191406 322.417969 276.695312 321.957031 277.226562 321.523438 C 277.753906 321.085938 278.300781 320.679688 278.871094 320.296875 C 279.4375 319.917969 280.023438 319.5625 280.628906 319.238281 C 281.230469 318.914062 281.847656 318.621094 282.480469 318.359375 L 439.589844 250.5625 C 445.929688 248.839844 502.335938 234.3125 548.3125 248.117188 C 549.648438 248.511719 551.011719 248.636719 552.394531 248.492188 C 553.78125 248.347656 555.085938 247.941406 556.3125 247.28125 L 617.746094 213.769531 C 618.355469 213.445312 618.925781 213.0625 619.457031 212.625 C 619.988281 212.1875 620.472656 211.699219 620.910156 211.167969 C 621.34375 210.632812 621.722656 210.0625 622.046875 209.453125 C 622.371094 208.84375 622.628906 208.210938 622.828125 207.550781 C 623.023438 206.890625 623.15625 206.214844 623.21875 205.53125 C 623.28125 204.84375 623.277344 204.15625 623.207031 203.472656 C 623.132812 202.789062 622.996094 202.117188 622.789062 201.457031 C 622.585938 200.800781 622.316406 200.167969 621.988281 199.5625 C 621.65625 198.957031 621.273438 198.390625 620.828125 197.863281 C 620.386719 197.335938 619.898438 196.855469 619.359375 196.421875 C 618.824219 195.992188 618.25 195.617188 617.636719 195.300781 C 617.027344 194.980469 616.390625 194.726562 615.726562 194.535156 C 615.066406 194.34375 614.390625 194.21875 613.703125 194.160156 C 613.015625 194.101562 612.332031 194.113281 611.648438 194.191406 C 610.960938 194.269531 610.292969 194.410156 609.636719 194.621094 C 608.980469 194.832031 608.351562 195.105469 607.75 195.441406 L 550.050781 226.90625 C 496.515625 212.695312 435.828125 229.90625 433.207031 230.664062 C 432.785156 230.785156 432.375 230.933594 431.96875 231.109375 L 274.300781 299.15625 C 273.035156 299.683594 271.800781 300.273438 270.59375 300.925781 C 269.386719 301.578125 268.214844 302.285156 267.078125 303.050781 C 265.941406 303.816406 264.84375 304.636719 263.789062 305.511719 C 262.734375 306.386719 261.722656 307.308594 260.757812 308.285156 C 259.792969 309.257812 258.878906 310.277344 258.015625 311.339844 C 257.148438 312.40625 256.339844 313.507812 255.582031 314.652344 C 254.828125 315.796875 254.128906 316.972656 253.488281 318.1875 C 252.851562 319.398438 252.269531 320.640625 251.753906 321.910156 C 251.238281 323.179688 250.78125 324.46875 250.390625 325.785156 C 250 327.097656 249.675781 328.429688 249.417969 329.773438 C 249.160156 331.121094 248.964844 332.476562 248.839844 333.84375 C 248.714844 335.207031 248.65625 336.574219 248.664062 337.945312 C 248.675781 339.316406 248.75 340.683594 248.894531 342.046875 C 249.039062 343.410156 249.25 344.765625 249.523438 346.105469 C 249.800781 347.449219 250.144531 348.773438 250.550781 350.082031 C 250.960938 351.394531 251.429688 352.679688 251.964844 353.941406 C 252.5 355.203125 253.09375 356.4375 253.75 357.640625 C 254.40625 358.84375 255.117188 360.011719 255.886719 361.148438 C 256.660156 362.28125 257.484375 363.375 258.363281 364.425781 C 259.242188 365.480469 260.167969 366.484375 261.144531 367.445312 C 262.125 368.40625 263.144531 369.320312 264.214844 370.179688 C 265.28125 371.039062 266.386719 371.84375 267.535156 372.597656 C 268.679688 373.347656 269.863281 374.039062 271.078125 374.675781 C 272.292969 375.3125 273.535156 375.882812 274.808594 376.398438 C 276.078125 376.910156 277.371094 377.359375 278.6875 377.742188 C 280.003906 378.128906 281.335938 378.449219 282.683594 378.703125 C 284.027344 378.957031 285.386719 379.144531 286.75 379.265625 C 288.117188 379.382812 289.484375 379.4375 290.855469 379.421875 C 292.226562 379.410156 293.59375 379.328125 294.957031 379.179688 C 296.320312 379.027344 297.671875 378.8125 299.011719 378.53125 C 300.355469 378.25 301.679688 377.902344 302.984375 377.488281 C 304.292969 377.074219 305.578125 376.601562 306.835938 376.0625 L 394.328125 337.8125 C 394.679688 340.023438 395.644531 341.917969 397.222656 343.503906 L 518.410156 464.699219 C 525.496094 471.777344 526.476562 482.925781 520.644531 490.078125 C 519.839844 491.070312 518.941406 491.972656 517.945312 492.777344 C 516.949219 493.578125 515.878906 494.269531 514.738281 494.847656 C 513.59375 495.425781 512.40625 495.875 511.167969 496.199219 C 509.929688 496.523438 508.671875 496.714844 507.394531 496.773438 C 506.117188 496.835938 504.851562 496.765625 503.589844 496.5625 C 502.328125 496.363281 501.101562 496.03125 499.910156 495.578125 C 498.71875 495.121094 497.585938 494.550781 496.511719 493.859375 C 495.4375 493.171875 494.445312 492.378906 493.535156 491.484375 L 447.402344 445.351562 C 446.917969 444.867188 446.390625 444.433594 445.820312 444.054688 C 445.25 443.675781 444.648438 443.355469 444.015625 443.09375 C 443.382812 442.832031 442.730469 442.632812 442.058594 442.5 C 441.386719 442.367188 440.710938 442.300781 440.023438 442.300781 C 439.339844 442.300781 438.660156 442.367188 437.988281 442.5 C 437.316406 442.636719 436.664062 442.832031 436.03125 443.097656 C 435.398438 443.359375 434.796875 443.679688 434.230469 444.058594 C 433.660156 444.441406 433.132812 444.875 432.648438 445.359375 C 432.164062 445.84375 431.730469 446.371094 431.351562 446.9375 C 430.96875 447.507812 430.648438 448.109375 430.386719 448.742188 C 430.125 449.375 429.925781 450.027344 429.792969 450.699219 C 429.660156 451.371094 429.589844 452.050781 429.589844 452.734375 C 429.589844 453.417969 429.65625 454.097656 429.789062 454.769531 C 429.925781 455.441406 430.121094 456.09375 430.382812 456.726562 C 430.644531 457.359375 430.964844 457.960938 431.347656 458.53125 C 431.726562 459.101562 432.160156 459.628906 432.644531 460.113281 L 475.085938 502.554688 C 475.984375 503.460938 476.78125 504.449219 477.472656 505.523438 C 478.164062 506.597656 478.738281 507.730469 479.195312 508.921875 C 479.652344 510.117188 479.976562 511.34375 480.175781 512.605469 C 480.375 513.867188 480.441406 515.136719 480.375 516.410156 C 480.316406 517.691406 480.125 518.949219 479.800781 520.183594 C 479.476562 521.421875 479.027344 522.613281 478.449219 523.753906 C 477.871094 524.894531 477.179688 525.964844 476.378906 526.960938 C 475.574219 527.953125 474.671875 528.855469 473.679688 529.65625 C 466.519531 535.5 455.386719 534.519531 448.289062 527.421875 L 403.117188 482.257812 C 402.632812 481.773438 402.105469 481.339844 401.535156 480.960938 C 400.964844 480.578125 400.363281 480.257812 399.730469 479.996094 C 399.097656 479.734375 398.445312 479.535156 397.773438 479.402344 C 397.101562 479.269531 396.421875 479.203125 395.738281 479.203125 C 395.050781 479.203125 394.371094 479.269531 393.699219 479.402344 C 393.027344 479.535156 392.375 479.734375 391.742188 479.996094 C 391.109375 480.257812 390.507812 480.578125 389.9375 480.960938 C 389.367188 481.339844 388.839844 481.773438 388.355469 482.257812 C 387.871094 482.742188 387.441406 483.269531 387.058594 483.839844 C 386.679688 484.410156 386.355469 485.011719 386.09375 485.644531 C 385.832031 486.277344 385.632812 486.929688 385.5 487.601562 C 385.367188 488.273438 385.300781 488.953125 385.300781 489.640625 C 385.300781 490.324219 385.367188 491.003906 385.5 491.675781 C 385.632812 492.347656 385.832031 493 386.09375 493.632812 C 386.355469 494.265625 386.679688 494.867188 387.058594 495.4375 C 387.441406 496.007812 387.871094 496.535156 388.355469 497.019531 L 430.796875 539.460938 C 431.699219 540.367188 432.496094 541.355469 433.1875 542.429688 C 433.878906 543.503906 434.453125 544.636719 434.910156 545.828125 C 435.363281 547.023438 435.691406 548.25 435.890625 549.511719 C 436.089844 550.773438 436.15625 552.042969 436.089844 553.316406 C 436.03125 554.597656 435.839844 555.855469 435.515625 557.089844 C 435.191406 558.328125 434.738281 559.519531 434.164062 560.660156 C 433.585938 561.800781 432.894531 562.871094 432.089844 563.863281 C 431.285156 564.859375 430.386719 565.761719 429.390625 566.5625 C 422.242188 572.40625 411.097656 571.429688 404.003906 564.328125 L 355.140625 515.472656 C 354.65625 514.988281 354.128906 514.558594 353.558594 514.175781 C 352.988281 513.796875 352.386719 513.472656 351.753906 513.210938 C 351.121094 512.949219 350.46875 512.75 349.796875 512.617188 C 349.125 512.484375 348.445312 512.417969 347.761719 512.417969 C 347.074219 512.417969 346.398438 512.484375 345.726562 512.617188 C 345.050781 512.75 344.398438 512.949219 343.765625 513.210938 C 343.132812 513.472656 342.53125 513.796875 341.960938 514.175781 C 341.390625 514.558594 340.867188 514.988281 340.378906 515.472656 C 339.894531 515.957031 339.464844 516.484375 339.082031 517.054688 C 338.703125 517.625 338.378906 518.226562 338.117188 518.859375 C 337.855469 519.492188 337.65625 520.144531 337.523438 520.816406 C 337.390625 521.492188 337.324219 522.167969 337.324219 522.855469 C 337.324219 523.539062 337.390625 524.21875 337.523438 524.890625 C 337.65625 525.5625 337.855469 526.214844 338.117188 526.847656 C 338.378906 527.480469 338.703125 528.082031 339.082031 528.652344 C 339.464844 529.222656 339.894531 529.75 340.378906 530.234375 L 384.667969 574.519531 C 384.984375 574.835938 392.0625 585.039062 391.804688 590.21875 C 391.746094 591.496094 391.554688 592.753906 391.230469 593.992188 C 390.90625 595.230469 390.453125 596.421875 389.875 597.5625 C 389.300781 598.707031 388.609375 599.773438 387.804688 600.769531 C 387 601.765625 386.101562 602.667969 385.105469 603.472656 C 377.953125 609.300781 366.8125 608.332031 359.722656 601.242188 L 178.960938 420.472656 C 178.027344 419.542969 177.300781 418.472656 176.777344 417.261719 L 153.789062 364.429688 C 153.527344 363.785156 153.203125 363.175781 152.816406 362.597656 C 152.433594 362.019531 151.992188 361.484375 151.5 360.992188 C 151.007812 360.503906 150.472656 360.066406 149.894531 359.679688 C 149.3125 359.296875 148.703125 358.976562 148.058594 358.714844 C 147.414062 358.453125 146.75 358.257812 146.070312 358.128906 C 145.386719 358 144.695312 357.9375 144 357.945312 C 143.304688 357.957031 142.621094 358.03125 141.941406 358.179688 C 141.261719 358.324219 140.601562 358.535156 139.964844 358.8125 C 139.328125 359.089844 138.722656 359.429688 138.152344 359.824219 C 137.582031 360.222656 137.058594 360.675781 136.578125 361.175781 C 136.097656 361.679688 135.675781 362.226562 135.304688 362.8125 C 134.933594 363.402344 134.621094 364.019531 134.375 364.667969 C 134.128906 365.316406 133.949219 365.984375 133.832031 366.671875 C 133.71875 367.355469 133.675781 368.046875 133.699219 368.742188 C 133.722656 369.4375 133.8125 370.121094 133.976562 370.796875 C 134.136719 371.472656 134.363281 372.128906 134.652344 372.757812 L 157.625 425.570312 C 159.199219 429.210938 161.390625 432.433594 164.199219 435.234375 Z M 190.160156 481.398438 C 189.4375 480.667969 188.777344 479.882812 188.183594 479.039062 C 187.59375 478.199219 187.074219 477.316406 186.632812 476.386719 C 186.1875 475.457031 185.824219 474.5 185.542969 473.511719 C 185.261719 472.519531 185.066406 471.515625 184.953125 470.492188 C 184.84375 469.46875 184.816406 468.445312 184.878906 467.417969 C 184.9375 466.390625 185.085938 465.375 185.316406 464.375 C 185.550781 463.371094 185.863281 462.394531 186.261719 461.445312 C 186.660156 460.496094 187.132812 459.589844 187.683594 458.71875 L 212.84375 483.882812 C 211.976562 484.433594 211.066406 484.90625 210.117188 485.304688 C 209.167969 485.699219 208.191406 486.015625 207.1875 486.246094 C 206.1875 486.480469 205.171875 486.625 204.144531 486.6875 C 203.117188 486.746094 202.089844 486.722656 201.070312 486.609375 C 200.046875 486.496094 199.039062 486.300781 198.050781 486.019531 C 197.058594 485.738281 196.101562 485.375 195.171875 484.929688 C 194.242188 484.484375 193.359375 483.96875 192.519531 483.375 C 191.675781 482.78125 190.890625 482.121094 190.160156 481.398438 Z M 230.757812 521.992188 C 230.03125 521.261719 229.375 520.476562 228.78125 519.636719 C 228.1875 518.796875 227.671875 517.910156 227.226562 516.980469 C 226.785156 516.054688 226.421875 515.09375 226.140625 514.105469 C 225.859375 513.117188 225.660156 512.109375 225.550781 511.085938 C 225.4375 510.066406 225.414062 509.039062 225.472656 508.011719 C 225.535156 506.984375 225.679688 505.972656 225.914062 504.96875 C 226.144531 503.964844 226.460938 502.992188 226.855469 502.042969 C 227.253906 501.09375 227.726562 500.183594 228.277344 499.3125 L 253.441406 524.476562 C 252.570312 525.027344 251.664062 525.503906 250.710938 525.898438 C 249.761719 526.296875 248.789062 526.609375 247.785156 526.84375 C 246.78125 527.074219 245.765625 527.222656 244.738281 527.28125 C 243.710938 527.34375 242.6875 527.316406 241.664062 527.207031 C 240.640625 527.09375 239.636719 526.898438 238.644531 526.613281 C 237.65625 526.332031 236.695312 525.96875 235.769531 525.527344 C 234.839844 525.082031 233.953125 524.5625 233.113281 523.972656 C 232.273438 523.378906 231.488281 522.71875 230.757812 521.992188 Z M 271.355469 562.59375 C 270.628906 561.863281 269.96875 561.078125 269.378906 560.238281 C 268.785156 559.398438 268.265625 558.511719 267.824219 557.585938 C 267.378906 556.65625 267.019531 555.699219 266.734375 554.707031 C 266.453125 553.71875 266.257812 552.710938 266.144531 551.691406 C 266.035156 550.667969 266.007812 549.640625 266.070312 548.613281 C 266.128906 547.589844 266.277344 546.574219 266.507812 545.570312 C 266.742188 544.570312 267.054688 543.59375 267.453125 542.644531 C 267.851562 541.695312 268.324219 540.785156 268.875 539.917969 L 294.035156 565.078125 C 293.167969 565.628906 292.257812 566.101562 291.308594 566.5 C 290.359375 566.898438 289.382812 567.210938 288.378906 567.445312 C 287.378906 567.675781 286.363281 567.824219 285.335938 567.886719 C 284.308594 567.945312 283.28125 567.921875 282.261719 567.808594 C 281.238281 567.695312 280.230469 567.5 279.242188 567.21875 C 278.25 566.9375 277.292969 566.574219 276.363281 566.128906 C 275.433594 565.683594 274.550781 565.167969 273.710938 564.574219 C 272.867188 563.980469 272.082031 563.320312 271.355469 562.59375 Z M 311.941406 603.183594 C 311.214844 602.453125 310.554688 601.667969 309.964844 600.824219 C 309.371094 599.984375 308.851562 599.101562 308.410156 598.171875 C 307.964844 597.242188 307.605469 596.285156 307.320312 595.296875 C 307.039062 594.304688 306.84375 593.300781 306.730469 592.277344 C 306.621094 591.253906 306.59375 590.230469 306.65625 589.203125 C 306.71875 588.175781 306.863281 587.160156 307.097656 586.160156 C 307.328125 585.15625 307.644531 584.183594 308.042969 583.234375 C 308.4375 582.285156 308.914062 581.375 309.460938 580.503906 L 334.589844 605.632812 C 333.714844 606.160156 332.800781 606.609375 331.851562 606.988281 C 330.90625 607.363281 329.929688 607.660156 328.933594 607.878906 C 327.9375 608.097656 326.929688 608.238281 325.90625 608.292969 C 324.886719 608.347656 323.871094 608.320312 322.855469 608.210938 C 321.839844 608.101562 320.839844 607.910156 319.855469 607.636719 C 318.871094 607.363281 317.917969 607.015625 316.988281 606.585938 C 316.0625 606.160156 315.175781 605.660156 314.328125 605.089844 C 313.480469 604.519531 312.6875 603.882812 311.945312 603.183594 Z M 311.941406 603.183594 " fill-opacity="1" fill-rule="nonzero"/><path fill="#ffffff" d="M 547.367188 446.660156 C 547.695312 447.261719 548.078125 447.828125 548.519531 448.351562 C 548.957031 448.878906 549.445312 449.355469 549.976562 449.785156 C 550.511719 450.21875 551.082031 450.589844 551.6875 450.910156 C 552.296875 451.226562 552.929688 451.480469 553.585938 451.675781 C 554.242188 451.867188 554.914062 451.996094 555.597656 452.058594 C 556.28125 452.117188 556.960938 452.113281 557.644531 452.039062 C 558.324219 451.96875 558.992188 451.828125 559.648438 451.625 C 560.300781 451.417969 560.929688 451.152344 561.53125 450.824219 L 676.355469 388.195312 C 676.957031 387.867188 677.523438 387.484375 678.046875 387.046875 C 678.574219 386.605469 679.054688 386.121094 679.484375 385.585938 C 679.914062 385.050781 680.289062 384.480469 680.609375 383.875 C 680.925781 383.265625 681.183594 382.632812 681.375 381.976562 C 681.570312 381.320312 681.699219 380.648438 681.757812 379.964844 C 681.820312 379.28125 681.816406 378.601562 681.742188 377.917969 C 681.667969 377.238281 681.53125 376.566406 681.324219 375.914062 C 681.121094 375.257812 680.855469 374.632812 680.527344 374.027344 C 680.199219 373.425781 679.8125 372.863281 679.375 372.335938 C 678.933594 371.808594 678.449219 371.332031 677.914062 370.902344 C 677.378906 370.472656 676.808594 370.097656 676.203125 369.777344 C 675.59375 369.460938 674.960938 369.207031 674.304688 369.011719 C 673.644531 368.820312 672.976562 368.691406 672.292969 368.632812 C 671.609375 368.570312 670.925781 368.578125 670.246094 368.648438 C 669.5625 368.722656 668.894531 368.863281 668.242188 369.066406 C 667.585938 369.273438 666.957031 369.539062 666.355469 369.867188 L 551.53125 432.5 C 550.929688 432.828125 550.367188 433.210938 549.839844 433.648438 C 549.3125 434.089844 548.835938 434.574219 548.40625 435.109375 C 547.972656 435.640625 547.601562 436.210938 547.28125 436.820312 C 546.964844 437.425781 546.707031 438.058594 546.515625 438.71875 C 546.320312 439.375 546.195312 440.046875 546.132812 440.726562 C 546.070312 441.410156 546.078125 442.09375 546.148438 442.773438 C 546.222656 443.457031 546.363281 444.125 546.566406 444.777344 C 546.769531 445.433594 547.039062 446.058594 547.367188 446.660156 Z M 547.367188 446.660156 " fill-opacity="1" fill-rule="nonzero"/><path fill="#ffffff" d="M 282.386719 242.96875 L 339.800781 258.625 C 340.460938 258.800781 341.132812 258.914062 341.8125 258.957031 C 342.492188 259 343.171875 258.980469 343.851562 258.890625 C 344.527344 258.800781 345.191406 258.648438 345.835938 258.429688 C 346.484375 258.207031 347.101562 257.929688 347.695312 257.589844 C 348.289062 257.25 348.839844 256.851562 349.355469 256.402344 C 349.871094 255.953125 350.335938 255.460938 350.753906 254.917969 C 351.171875 254.378906 351.53125 253.804688 351.835938 253.191406 C 352.140625 252.578125 352.382812 251.945312 352.5625 251.285156 C 352.742188 250.628906 352.855469 249.957031 352.902344 249.277344 C 352.953125 248.59375 352.933594 247.914062 352.847656 247.238281 C 352.761719 246.558594 352.613281 245.894531 352.398438 245.25 C 352.183594 244.601562 351.90625 243.980469 351.570312 243.386719 C 351.230469 242.789062 350.839844 242.234375 350.394531 241.71875 C 349.949219 241.203125 349.457031 240.734375 348.917969 240.3125 C 348.378906 239.890625 347.804688 239.527344 347.195312 239.21875 C 346.585938 238.910156 345.953125 238.667969 345.292969 238.484375 L 287.882812 222.824219 C 287.21875 222.644531 286.546875 222.53125 285.863281 222.484375 C 285.179688 222.433594 284.496094 222.453125 283.816406 222.539062 C 283.136719 222.625 282.472656 222.777344 281.824219 222.996094 C 281.171875 223.214844 280.550781 223.492188 279.953125 223.832031 C 279.359375 224.171875 278.804688 224.566406 278.285156 225.015625 C 277.769531 225.464844 277.300781 225.960938 276.878906 226.503906 C 276.460938 227.046875 276.097656 227.625 275.792969 228.238281 C 275.484375 228.851562 275.242188 229.488281 275.0625 230.148438 C 274.882812 230.808594 274.769531 231.484375 274.71875 232.167969 C 274.671875 232.851562 274.691406 233.53125 274.777344 234.210938 C 274.863281 234.890625 275.015625 235.558594 275.234375 236.207031 C 275.449219 236.859375 275.730469 237.480469 276.070312 238.074219 C 276.410156 238.671875 276.804688 239.226562 277.253906 239.746094 C 277.703125 240.261719 278.199219 240.730469 278.742188 241.148438 C 279.285156 241.570312 279.859375 241.933594 280.472656 242.238281 C 281.085938 242.542969 281.726562 242.789062 282.386719 242.96875 Z M 282.386719 242.96875 " fill-opacity="1" fill-rule="nonzero"/><path fill="#ffffff" d="M 177.171875 188.167969 C 176.652344 187.714844 176.097656 187.320312 175.503906 186.980469 C 174.90625 186.640625 174.285156 186.359375 173.636719 186.140625 C 172.984375 185.921875 172.320312 185.769531 171.640625 185.683594 C 170.960938 185.597656 170.28125 185.574219 169.597656 185.621094 C 168.910156 185.667969 168.238281 185.78125 167.578125 185.960938 C 166.917969 186.140625 166.277344 186.382812 165.664062 186.6875 C 165.050781 186.992188 164.472656 187.355469 163.929688 187.773438 C 163.386719 188.191406 162.890625 188.660156 162.4375 189.175781 C 155.988281 196.582031 149.878906 204.265625 144.113281 212.21875 C 138.351562 220.171875 132.953125 228.367188 127.925781 236.808594 C 122.894531 245.246094 118.253906 253.890625 114 262.746094 C 109.746094 271.601562 105.898438 280.628906 102.453125 289.828125 C 99.007812 299.027344 95.984375 308.363281 93.375 317.835938 C 90.769531 327.304688 88.589844 336.875 86.839844 346.542969 C 85.09375 356.207031 83.777344 365.933594 82.902344 375.71875 C 82.023438 385.5 81.585938 395.304688 81.589844 405.128906 C 81.589844 405.8125 81.65625 406.492188 81.789062 407.164062 C 81.921875 407.835938 82.121094 408.488281 82.382812 409.121094 C 82.644531 409.753906 82.96875 410.355469 83.347656 410.925781 C 83.730469 411.496094 84.160156 412.023438 84.648438 412.507812 C 85.132812 412.992188 85.660156 413.425781 86.226562 413.808594 C 86.796875 414.1875 87.398438 414.507812 88.03125 414.773438 C 88.667969 415.035156 89.320312 415.230469 89.992188 415.367188 C 90.664062 415.5 91.34375 415.566406 92.027344 415.566406 C 92.714844 415.566406 93.390625 415.5 94.0625 415.367188 C 94.734375 415.230469 95.390625 415.035156 96.023438 414.773438 C 96.65625 414.507812 97.257812 414.1875 97.828125 413.808594 C 98.398438 413.425781 98.925781 412.992188 99.410156 412.507812 C 99.894531 412.023438 100.324219 411.496094 100.707031 410.925781 C 101.085938 410.355469 101.410156 409.753906 101.671875 409.121094 C 101.933594 408.488281 102.132812 407.835938 102.265625 407.164062 C 102.398438 406.492188 102.464844 405.8125 102.464844 405.128906 C 102.464844 395.929688 102.871094 386.75 103.695312 377.585938 C 104.515625 368.421875 105.746094 359.316406 107.382812 350.261719 C 109.019531 341.210938 111.058594 332.25 113.5 323.382812 C 115.941406 314.511719 118.777344 305.769531 122 297.152344 C 125.226562 288.539062 128.832031 280.085938 132.8125 271.792969 C 136.796875 263.5 141.144531 255.402344 145.851562 247.5 C 150.5625 239.601562 155.617188 231.925781 161.015625 224.476562 C 166.414062 217.027344 172.132812 209.832031 178.175781 202.898438 C 178.625 202.378906 179.023438 201.824219 179.363281 201.230469 C 179.703125 200.636719 179.984375 200.011719 180.203125 199.363281 C 180.421875 198.714844 180.574219 198.050781 180.660156 197.371094 C 180.75 196.691406 180.769531 196.007812 180.722656 195.324219 C 180.675781 194.640625 180.5625 193.96875 180.382812 193.304688 C 180.203125 192.644531 179.960938 192.007812 179.65625 191.390625 C 179.351562 190.777344 178.992188 190.199219 178.574219 189.65625 C 178.152344 189.113281 177.6875 188.617188 177.171875 188.167969 Z M 177.171875 188.167969 " fill-opacity="1" fill-rule="nonzero"/><g clip-path="url(#fbfb9c1be8)"><path fill="#ffffff" d="M 720.398438 478.710938 C 719.734375 478.53125 719.0625 478.414062 718.378906 478.367188 C 717.695312 478.320312 717.011719 478.335938 716.332031 478.425781 C 715.652344 478.511719 714.988281 478.664062 714.335938 478.878906 C 713.6875 479.097656 713.066406 479.378906 712.46875 479.71875 C 711.875 480.058594 711.320312 480.453125 710.800781 480.90625 C 710.285156 481.355469 709.816406 481.851562 709.398438 482.394531 C 708.980469 482.9375 708.617188 483.515625 708.3125 484.128906 C 708.007812 484.746094 707.769531 485.382812 707.589844 486.046875 C 671.28125 619.707031 549.066406 713.058594 410.394531 713.058594 C 404.402344 713.042969 398.417969 712.855469 392.4375 712.492188 C 386.457031 712.128906 380.492188 711.59375 374.542969 710.886719 C 368.59375 710.179688 362.671875 709.296875 356.773438 708.246094 C 350.875 707.195312 345.011719 705.972656 339.183594 704.578125 C 333.359375 703.183594 327.578125 701.625 321.839844 699.894531 C 316.105469 698.167969 310.421875 696.273438 304.796875 694.214844 C 299.171875 692.15625 293.609375 689.933594 288.113281 687.554688 C 282.613281 685.171875 277.191406 682.632812 271.839844 679.933594 C 266.492188 677.238281 261.222656 674.386719 256.039062 671.386719 C 250.855469 668.382812 245.761719 665.230469 240.761719 661.933594 C 235.761719 658.632812 230.859375 655.191406 226.058594 651.609375 C 221.257812 648.027344 216.5625 644.304688 211.976562 640.449219 C 207.390625 636.59375 202.921875 632.609375 198.570312 628.492188 C 194.214844 624.378906 189.984375 620.136719 185.878906 615.777344 C 181.769531 611.414062 177.792969 606.9375 173.945312 602.347656 C 170.097656 597.753906 166.386719 593.054688 162.8125 588.246094 C 162.402344 587.699219 161.941406 587.199219 161.433594 586.742188 C 160.925781 586.285156 160.378906 585.882812 159.792969 585.535156 C 159.207031 585.1875 158.589844 584.898438 157.945312 584.667969 C 157.304688 584.441406 156.644531 584.277344 155.96875 584.179688 C 155.292969 584.082031 154.613281 584.050781 153.929688 584.082031 C 153.25 584.117188 152.578125 584.21875 151.914062 584.386719 C 151.253906 584.550781 150.613281 584.78125 149.996094 585.074219 C 149.378906 585.363281 148.796875 585.714844 148.246094 586.121094 C 147.699219 586.527344 147.195312 586.984375 146.734375 587.488281 C 146.277344 587.992188 145.871094 588.539062 145.519531 589.125 C 145.164062 589.707031 144.875 590.320312 144.640625 590.964844 C 144.410156 591.605469 144.242188 592.265625 144.140625 592.941406 C 144.039062 593.613281 144 594.292969 144.03125 594.976562 C 144.0625 595.65625 144.160156 596.332031 144.320312 596.992188 C 144.484375 597.65625 144.707031 598.296875 144.996094 598.917969 C 145.285156 599.535156 145.628906 600.121094 146.035156 600.671875 C 149.851562 605.804688 153.8125 610.824219 157.921875 615.726562 C 162.03125 620.632812 166.277344 625.410156 170.664062 630.066406 C 175.050781 634.722656 179.566406 639.25 184.214844 643.644531 C 188.863281 648.039062 193.636719 652.292969 198.53125 656.410156 C 203.429688 660.527344 208.441406 664.5 213.566406 668.324219 C 218.695312 672.152344 223.925781 675.824219 229.269531 679.347656 C 234.609375 682.871094 240.046875 686.234375 245.582031 689.441406 C 251.117188 692.648438 256.742188 695.691406 262.453125 698.570312 C 268.164062 701.449219 273.957031 704.160156 279.828125 706.703125 C 285.695312 709.246094 291.632812 711.617188 297.640625 713.816406 C 303.648438 716.011719 309.714844 718.035156 315.839844 719.882812 C 321.964844 721.726562 328.140625 723.394531 334.359375 724.878906 C 340.582031 726.367188 346.84375 727.671875 353.140625 728.796875 C 359.4375 729.921875 365.761719 730.859375 372.113281 731.617188 C 378.464844 732.375 384.835938 732.945312 391.222656 733.332031 C 397.605469 733.71875 403.996094 733.917969 410.394531 733.933594 C 558.46875 733.933594 688.964844 634.25 727.730469 491.519531 C 727.910156 490.859375 728.023438 490.183594 728.074219 489.5 C 728.121094 488.816406 728.101562 488.136719 728.011719 487.457031 C 727.925781 486.777344 727.773438 486.113281 727.554688 485.460938 C 727.339844 484.8125 727.058594 484.191406 726.71875 483.59375 C 726.378906 483 725.984375 482.445312 725.53125 481.929688 C 725.082031 481.410156 724.585938 480.941406 724.042969 480.523438 C 723.5 480.105469 722.921875 479.742188 722.308594 479.4375 C 721.695312 479.132812 721.058594 478.890625 720.398438 478.710938 Z M 720.398438 478.710938 " fill-opacity="1" fill-rule="nonzero"/></g><g clip-path="url(#438e529bf3)"><path fill="#ffffff" d="M 410.394531 97.199219 C 418.589844 97.175781 426.769531 97.480469 434.9375 98.117188 C 443.105469 98.753906 451.238281 99.714844 459.328125 101.003906 C 467.421875 102.292969 475.445312 103.90625 483.40625 105.839844 C 491.371094 107.777344 499.242188 110.03125 507.019531 112.597656 C 514.800781 115.167969 522.464844 118.042969 530.015625 121.230469 C 537.5625 124.417969 544.972656 127.902344 552.242188 131.683594 C 559.507812 135.464844 566.613281 139.535156 573.554688 143.886719 C 580.496094 148.242188 587.25 152.867188 593.820312 157.765625 C 594.367188 158.171875 594.953125 158.523438 595.574219 158.816406 C 596.191406 159.109375 596.835938 159.339844 597.5 159.503906 C 598.164062 159.671875 598.835938 159.773438 599.523438 159.804688 C 600.207031 159.839844 600.886719 159.804688 601.5625 159.707031 C 602.242188 159.605469 602.902344 159.441406 603.546875 159.210938 C 604.191406 158.980469 604.808594 158.6875 605.398438 158.335938 C 605.984375 157.984375 606.53125 157.578125 607.039062 157.117188 C 607.546875 156.660156 608.007812 156.152344 608.414062 155.605469 C 608.824219 155.054688 609.175781 154.46875 609.46875 153.851562 C 609.761719 153.230469 609.992188 152.589844 610.15625 151.925781 C 610.324219 151.261719 610.425781 150.585938 610.460938 149.902344 C 610.492188 149.21875 610.460938 148.539062 610.359375 147.859375 C 610.261719 147.183594 610.097656 146.519531 609.867188 145.875 C 609.636719 145.230469 609.347656 144.613281 608.996094 144.027344 C 608.644531 143.4375 608.238281 142.890625 607.777344 142.382812 C 607.320312 141.875 606.8125 141.414062 606.265625 141.007812 C 599.25 135.777344 592.039062 130.835938 584.625 126.1875 C 577.214844 121.535156 569.628906 117.191406 561.867188 113.152344 C 554.105469 109.113281 546.195312 105.390625 538.132812 101.988281 C 530.070312 98.585938 521.886719 95.511719 513.578125 92.769531 C 505.269531 90.027344 496.863281 87.621094 488.363281 85.554688 C 479.859375 83.488281 471.289062 81.765625 462.648438 80.386719 C 454.007812 79.007812 445.328125 77.980469 436.605469 77.304688 C 427.878906 76.625 419.144531 76.296875 410.394531 76.324219 C 409.710938 76.324219 409.03125 76.390625 408.359375 76.523438 C 407.6875 76.65625 407.03125 76.855469 406.398438 77.117188 C 405.765625 77.378906 405.164062 77.703125 404.59375 78.082031 C 404.023438 78.464844 403.5 78.894531 403.011719 79.378906 C 402.527344 79.863281 402.097656 80.390625 401.714844 80.960938 C 401.335938 81.53125 401.011719 82.132812 400.75 82.765625 C 400.488281 83.398438 400.289062 84.050781 400.15625 84.726562 C 400.023438 85.398438 399.957031 86.074219 399.957031 86.761719 C 399.957031 87.445312 400.023438 88.125 400.15625 88.796875 C 400.289062 89.46875 400.488281 90.121094 400.75 90.753906 C 401.011719 91.390625 401.335938 91.992188 401.714844 92.558594 C 402.097656 93.128906 402.527344 93.65625 403.011719 94.140625 C 403.5 94.625 404.023438 95.058594 404.59375 95.441406 C 405.164062 95.820312 405.765625 96.144531 406.398438 96.40625 C 407.03125 96.667969 407.6875 96.863281 408.359375 97 C 409.03125 97.132812 409.710938 97.199219 410.394531 97.199219 Z M 410.394531 97.199219 " fill-opacity="1" fill-rule="nonzero"/></g></svg>