<svg xmlns="http://www.w3.org/2000/svg" xmlns:xlink="http://www.w3.org/1999/xlink" width="1080" zoomAndPan="magnify" viewBox="0 0 810 809.999993" height="1080" preserveAspectRatio="xMidYMid meet" version="1.0"><defs><clipPath id="484f000fac"><path d="M 105 72 L 705.785156 72 L 705.785156 739.125 L 105 739.125 Z M 105 72 " clip-rule="nonzero"/></clipPath></defs><g clip-path="url(#484f000fac)"><path fill="#ffffff" d="M 172.707031 322.398438 C 178.785156 294.039062 189.902344 267.246094 205.753906 242.84375 C 207.792969 239.714844 208.097656 235.808594 206.664062 232.421875 L 192.421875 199.113281 C 191.511719 196.941406 191.769531 194.769531 193.117188 193.164062 C 202.324219 182.046875 212.960938 171.363281 226.597656 159.683594 C 228.117188 158.425781 230.289062 158.164062 232.417969 159.074219 L 265.765625 173.320312 C 269.199219 174.75 273.105469 174.40625 276.1875 172.40625 C 300.59375 156.558594 327.34375 145.441406 355.742188 139.359375 C 359.347656 138.578125 362.34375 136.058594 363.734375 132.628906 L 377.152344 99.105469 C 378.019531 97.019531 379.886719 95.5 381.796875 95.328125 C 396.300781 93.9375 413.195312 93.9375 429.347656 95.328125 C 431.214844 95.5 433.082031 97.019531 433.910156 99.0625 L 447.371094 132.628906 C 448.757812 136.058594 451.757812 138.578125 455.359375 139.359375 C 483.761719 145.441406 510.511719 156.558594 534.914062 172.40625 C 537.996094 174.40625 541.90625 174.75 545.335938 173.320312 L 578.6875 159.074219 C 580.816406 158.164062 582.984375 158.425781 584.59375 159.769531 C 595.535156 168.757812 606.523438 179.746094 618.074219 193.25 C 619.332031 194.769531 619.59375 196.941406 618.679688 199.070312 L 604.4375 232.421875 C 603.003906 235.808594 603.308594 239.714844 605.351562 242.84375 C 621.199219 267.246094 632.316406 294.039062 638.394531 322.398438 C 639.179688 326 641.695312 328.996094 645.128906 330.386719 L 678.652344 343.804688 C 680.734375 344.628906 682.253906 346.539062 682.429688 348.453125 C 683.820312 362.910156 683.820312 379.847656 682.429688 396 C 682.253906 397.871094 680.734375 399.738281 678.695312 400.5625 L 645.128906 414.023438 C 641.695312 415.414062 639.179688 418.410156 638.394531 422.011719 C 632.316406 450.371094 621.199219 477.121094 605.351562 501.566406 C 603.308594 504.652344 603.003906 508.558594 604.4375 511.988281 L 618.679688 545.296875 C 619.59375 547.425781 619.332031 549.640625 617.988281 551.203125 C 608.953125 562.1875 597.96875 573.132812 584.507812 584.683594 C 584.203125 584.945312 583.769531 584.988281 583.421875 585.160156 L 583.421875 485.847656 C 605.175781 451.933594 616.769531 412.765625 616.769531 372.203125 C 616.769531 255.738281 522.015625 160.984375 405.550781 160.984375 C 289.085938 160.984375 194.332031 255.738281 194.332031 372.203125 C 194.332031 412.765625 205.925781 451.933594 227.683594 485.847656 L 227.683594 585.117188 C 227.292969 584.945312 226.859375 584.945312 226.511719 584.640625 C 215.523438 575.5625 204.582031 564.621094 193.03125 551.160156 C 191.769531 549.640625 191.511719 547.425781 192.421875 545.339844 L 206.664062 511.988281 C 208.097656 508.558594 207.792969 504.652344 205.753906 501.566406 C 189.902344 477.121094 178.785156 450.371094 172.707031 422.011719 C 171.96875 418.410156 169.40625 415.414062 165.976562 414.023438 L 132.453125 400.5625 C 130.410156 399.738281 128.847656 397.871094 128.675781 395.957031 C 127.285156 381.453125 127.285156 364.5625 128.675781 348.363281 C 128.847656 346.539062 130.410156 344.628906 132.410156 343.847656 L 165.976562 330.386719 C 169.40625 328.996094 171.96875 326 172.707031 322.398438 Z M 561.1875 639.007812 C 561.1875 651.253906 551.199219 661.242188 538.953125 661.242188 L 427.785156 661.242188 C 425.917969 661.242188 424.09375 661.71875 422.488281 662.585938 L 323.523438 716.261719 C 321.4375 717.390625 319.613281 716.566406 318.917969 716.128906 C 318.050781 715.609375 316.617188 714.4375 316.617188 712.136719 L 316.617188 672.359375 C 316.617188 666.234375 311.625 661.242188 305.5 661.242188 L 272.152344 661.242188 C 259.90625 661.242188 249.917969 651.253906 249.917969 639.007812 L 249.917969 416.671875 C 249.917969 404.425781 259.90625 394.4375 272.152344 394.4375 L 538.953125 394.4375 C 551.199219 394.4375 561.1875 404.425781 561.1875 416.671875 Z M 538.953125 372.203125 L 272.152344 372.203125 C 247.617188 372.203125 227.683594 392.136719 227.683594 416.671875 L 227.683594 435.824219 C 220.429688 415.585938 216.566406 394.132812 216.566406 372.203125 C 216.566406 267.984375 301.332031 183.21875 405.550781 183.21875 C 509.773438 183.21875 594.539062 267.984375 594.539062 372.203125 C 594.539062 394.132812 590.671875 415.585938 583.421875 435.824219 L 583.421875 416.671875 C 583.421875 392.136719 563.488281 372.203125 538.953125 372.203125 Z M 124.113281 323.222656 C 114.34375 327.128906 107.441406 336.25 106.527344 346.453125 C 105.484375 358.832031 104.617188 377.851562 106.527344 398 C 107.441406 408.117188 114.34375 417.238281 124.160156 421.1875 L 152.296875 432.480469 C 158.679688 459.402344 169.320312 484.980469 183.910156 508.601562 L 171.96875 536.613281 C 167.800781 546.46875 169.363281 557.5 176.09375 565.53125 C 188.515625 580.082031 200.414062 591.933594 212.265625 601.707031 C 216.695312 605.398438 222.082031 607.351562 227.683594 607.785156 L 227.683594 639.007812 C 227.683594 663.542969 247.617188 683.476562 272.152344 683.476562 L 294.382812 683.476562 L 294.382812 712.136719 C 294.382812 721.6875 299.292969 730.332031 307.542969 735.238281 C 311.839844 737.800781 316.574219 739.058594 321.351562 739.058594 C 325.738281 739.058594 330.121094 737.972656 334.160156 735.800781 L 430.609375 683.476562 L 538.953125 683.476562 C 563.488281 683.476562 583.421875 663.542969 583.421875 639.007812 L 583.421875 607.914062 C 589.023438 607.4375 594.449219 605.398438 598.878906 601.664062 C 613.425781 589.199219 625.28125 577.34375 635.097656 565.445312 C 641.738281 557.5 643.304688 546.46875 639.132812 536.570312 L 627.191406 508.601562 C 641.785156 484.980469 652.421875 459.402344 658.804688 432.480469 L 686.988281 421.1875 C 696.757812 417.238281 703.664062 408.117188 704.574219 397.957031 C 705.617188 385.578125 706.488281 366.558594 704.574219 346.410156 C 703.664062 336.25 696.757812 327.128906 686.988281 323.179688 L 658.804688 311.886719 C 652.421875 284.964844 641.785156 259.386719 627.191406 235.765625 L 639.132812 207.753906 C 643.304688 197.898438 641.738281 186.867188 635.007812 178.832031 C 622.546875 164.285156 610.691406 152.429688 598.835938 142.660156 C 590.890625 136.015625 579.816406 134.453125 569.957031 138.621094 L 541.992188 150.5625 C 518.371094 135.972656 492.792969 125.378906 465.824219 118.949219 L 454.535156 90.769531 C 450.582031 80.996094 441.464844 74.09375 431.304688 73.179688 C 418.925781 72.140625 399.949219 71.269531 379.757812 73.179688 C 369.640625 74.09375 360.519531 80.996094 356.523438 90.769531 L 345.277344 118.949219 C 318.3125 125.378906 292.734375 135.972656 269.109375 150.5625 L 241.144531 138.621094 C 231.289062 134.410156 220.214844 135.972656 212.179688 142.746094 C 197.503906 155.339844 185.996094 166.890625 176.007812 178.921875 C 169.363281 186.867188 167.800781 197.898438 171.96875 207.796875 L 183.910156 235.765625 C 169.320312 259.386719 158.679688 284.964844 152.296875 311.886719 L 124.113281 323.222656 " fill-opacity="1" fill-rule="nonzero"/></g><path fill="#ffffff" d="M 527.835938 516.722656 L 283.265625 516.722656 C 277.144531 516.722656 272.152344 521.71875 272.152344 527.839844 C 272.152344 533.964844 277.144531 538.957031 283.265625 538.957031 L 527.835938 538.957031 C 533.960938 538.957031 538.953125 533.964844 538.953125 527.839844 C 538.953125 521.71875 533.960938 516.722656 527.835938 516.722656 " fill-opacity="1" fill-rule="nonzero"/><path fill="#ffffff" d="M 283.265625 494.488281 L 438.902344 494.488281 C 445.023438 494.488281 450.019531 489.496094 450.019531 483.371094 C 450.019531 477.25 445.023438 472.257812 438.902344 472.257812 L 283.265625 472.257812 C 277.144531 472.257812 272.152344 477.25 272.152344 483.371094 C 272.152344 489.496094 277.144531 494.488281 283.265625 494.488281 " fill-opacity="1" fill-rule="nonzero"/><path fill="#ffffff" d="M 527.835938 472.257812 L 483.371094 472.257812 C 477.246094 472.257812 472.253906 477.25 472.253906 483.371094 C 472.253906 489.496094 477.246094 494.488281 483.371094 494.488281 L 527.835938 494.488281 C 533.960938 494.488281 538.953125 489.496094 538.953125 483.371094 C 538.953125 477.25 533.960938 472.257812 527.835938 472.257812 " fill-opacity="1" fill-rule="nonzero"/><path fill="#ffffff" d="M 416.667969 605.65625 L 283.265625 605.65625 C 277.144531 605.65625 272.152344 610.652344 272.152344 616.773438 C 272.152344 622.898438 277.144531 627.890625 283.265625 627.890625 L 416.667969 627.890625 C 422.792969 627.890625 427.785156 622.898438 427.785156 616.773438 C 427.785156 610.652344 422.792969 605.65625 416.667969 605.65625 " fill-opacity="1" fill-rule="nonzero"/><path fill="#ffffff" d="M 283.265625 583.425781 L 305.5 583.425781 C 311.625 583.425781 316.617188 578.429688 316.617188 572.308594 C 316.617188 566.183594 311.625 561.191406 305.5 561.191406 L 283.265625 561.191406 C 277.144531 561.191406 272.152344 566.183594 272.152344 572.308594 C 272.152344 578.429688 277.144531 583.425781 283.265625 583.425781 " fill-opacity="1" fill-rule="nonzero"/><path fill="#ffffff" d="M 527.835938 561.191406 L 349.96875 561.191406 C 343.84375 561.191406 338.851562 566.183594 338.851562 572.308594 C 338.851562 578.429688 343.84375 583.425781 349.96875 583.425781 L 527.835938 583.425781 C 533.960938 583.425781 538.953125 578.429688 538.953125 572.308594 C 538.953125 566.183594 533.960938 561.191406 527.835938 561.191406 " fill-opacity="1" fill-rule="nonzero"/><path fill="#ffffff" d="M 527.835938 427.789062 L 283.265625 427.789062 C 277.144531 427.789062 272.152344 432.78125 272.152344 438.90625 C 272.152344 445.027344 277.144531 450.023438 283.265625 450.023438 L 527.835938 450.023438 C 533.960938 450.023438 538.953125 445.027344 538.953125 438.90625 C 538.953125 432.78125 533.960938 427.789062 527.835938 427.789062 " fill-opacity="1" fill-rule="nonzero"/></svg>