<svg xmlns="http://www.w3.org/2000/svg" xmlns:xlink="http://www.w3.org/1999/xlink" width="1080" zoomAndPan="magnify" viewBox="0 0 810 809.999993" height="1080" preserveAspectRatio="xMidYMid meet" version="1.0"><defs><clipPath id="ac4dded3b8"><path d="M 96.257812 315 L 713.507812 315 L 713.507812 713.507812 L 96.257812 713.507812 Z M 96.257812 315 " clip-rule="nonzero"/></clipPath><clipPath id="d1409af6e1"><path d="M 285 96.257812 L 485 96.257812 L 485 256 L 285 256 Z M 285 96.257812 " clip-rule="nonzero"/></clipPath></defs><path fill="#ffffff" d="M 205.8125 305.40625 C 244.253906 305.40625 275.527344 274.132812 275.527344 235.691406 C 275.527344 197.246094 244.253906 165.972656 205.8125 165.972656 C 167.367188 165.972656 136.09375 197.246094 136.09375 235.691406 C 136.09375 274.132812 167.367188 305.40625 205.8125 305.40625 Z M 205.8125 185.894531 C 233.300781 185.894531 255.609375 208.203125 255.609375 235.691406 C 255.609375 263.179688 233.300781 285.488281 205.8125 285.488281 C 178.324219 285.488281 156.015625 263.179688 156.015625 235.691406 C 156.015625 208.203125 178.324219 185.894531 205.8125 185.894531 Z M 205.8125 185.894531 " fill-opacity="1" fill-rule="nonzero"/><path fill="#ffffff" d="M 644.027344 395.039062 C 676.992188 395.039062 703.78125 368.25 703.78125 335.285156 C 703.78125 302.316406 676.992188 275.527344 644.027344 275.527344 C 611.058594 275.527344 584.269531 302.316406 584.269531 335.285156 C 584.269531 368.25 611.058594 395.039062 644.027344 395.039062 Z M 644.027344 295.445312 C 666.035156 295.445312 683.863281 313.273438 683.863281 335.285156 C 683.863281 357.292969 666.035156 375.121094 644.027344 375.121094 C 622.015625 375.121094 604.1875 357.292969 604.1875 335.285156 C 604.1875 313.273438 622.015625 295.445312 644.027344 295.445312 Z M 644.027344 295.445312 " fill-opacity="1" fill-rule="nonzero"/><g clip-path="url(#ac4dded3b8)"><path fill="#ffffff" d="M 713.742188 564.351562 L 713.742188 474.714844 C 713.742188 436.273438 682.46875 405 644.027344 405 C 605.582031 405 574.308594 436.273438 574.308594 474.714844 L 574.308594 494.636719 L 504.59375 494.636719 C 488.160156 494.636719 474.714844 508.078125 474.714844 524.511719 C 474.714844 528 475.414062 531.386719 476.507812 534.472656 L 285.488281 534.472656 C 290.964844 534.472656 295.445312 529.992188 295.445312 524.511719 L 295.445312 469.238281 L 403.308594 385.28125 C 410.078125 380 414.363281 372.035156 414.859375 363.371094 C 415.359375 354.703125 412.171875 346.339844 406.09375 340.265625 C 395.636719 329.804688 379.402344 328.511719 367.351562 337.078125 L 295.445312 388.46875 L 295.445312 385.082031 C 295.445312 346.636719 264.171875 315.363281 225.730469 315.363281 L 185.890625 315.363281 C 147.449219 315.363281 116.175781 346.636719 116.175781 385.082031 L 116.175781 524.511719 C 116.175781 529.992188 120.660156 534.472656 126.136719 534.472656 L 126.136719 693.824219 L 96.257812 693.824219 L 96.257812 713.742188 L 713.742188 713.742188 L 713.742188 693.824219 L 663.945312 693.824219 L 663.945312 631.179688 C 692.726562 622.613281 713.742188 595.921875 713.742188 564.351562 Z M 504.59375 554.390625 L 510.46875 554.390625 L 505.09375 559.769531 C 495.628906 569.132812 483.179688 574.308594 469.835938 574.308594 L 340.0625 574.308594 C 326.816406 574.308594 314.269531 569.132812 304.808594 559.769531 L 299.429688 554.390625 Z M 294.25 413.765625 L 379.003906 353.210938 C 383.089844 350.324219 388.566406 350.722656 392.050781 354.304688 C 394.144531 356.398438 395.238281 359.1875 395.039062 362.175781 C 394.839844 365.164062 393.445312 367.75 391.15625 369.542969 L 288.074219 449.71875 L 233.996094 413.664062 C 230.410156 411.273438 228.21875 407.488281 227.820312 403.308594 C 227.421875 399.125 228.917969 394.941406 231.90625 391.953125 C 234.695312 389.164062 238.277344 387.769531 241.863281 387.769531 C 244.753906 387.769531 247.640625 388.667969 250.128906 390.460938 L 282.796875 413.765625 C 286.285156 416.253906 290.863281 416.253906 294.351562 413.765625 Z M 188.28125 693.824219 L 205.8125 611.855469 L 223.339844 693.824219 L 188.183594 693.824219 Z M 265.566406 693.824219 L 243.757812 693.824219 L 215.570312 562.257812 C 214.574219 557.679688 210.492188 554.390625 205.8125 554.390625 C 201.128906 554.390625 197.046875 557.679688 196.050781 562.257812 L 167.867188 693.824219 L 146.054688 693.824219 L 146.054688 534.472656 L 265.566406 534.472656 Z M 275.527344 514.554688 L 136.09375 514.554688 L 136.09375 385.082031 C 136.09375 357.59375 158.40625 335.285156 185.890625 335.285156 L 225.730469 335.285156 C 252.917969 335.285156 274.929688 357.09375 275.425781 384.183594 L 261.585938 374.226562 C 247.941406 364.566406 229.515625 366.058594 217.664062 377.8125 C 210.394531 385.082031 206.808594 395.039062 207.902344 405.199219 C 208.898438 415.359375 214.375 424.519531 222.941406 430.199219 L 275.625 465.253906 L 275.625 514.453125 Z M 356.199219 693.824219 L 285.488281 693.824219 L 285.488281 568.433594 L 290.863281 573.8125 C 304.011719 586.957031 321.539062 594.230469 340.164062 594.230469 L 395.039062 594.230469 L 395.039062 654.980469 C 375.519531 658.964844 360.183594 674.304688 356.199219 693.824219 Z M 376.914062 693.824219 C 380.996094 682.269531 391.953125 673.90625 405 673.90625 C 418.046875 673.90625 428.902344 682.269531 433.085938 693.824219 Z M 453.703125 693.824219 C 449.71875 674.304688 434.378906 658.964844 414.859375 654.980469 L 414.859375 594.230469 L 469.734375 594.230469 C 488.359375 594.230469 505.890625 586.957031 519.035156 573.8125 L 538.457031 554.390625 L 571.820312 554.390625 L 562.957031 558.875 C 539.152344 570.726562 524.414062 594.628906 524.414062 621.21875 L 524.414062 683.863281 C 524.414062 687.351562 525.109375 690.734375 526.207031 693.824219 L 453.601562 693.824219 Z M 643.925781 693.824219 L 582.378906 693.824219 C 583.472656 690.734375 584.167969 687.351562 584.167969 683.863281 L 584.167969 644.027344 C 584.167969 638.546875 588.652344 634.066406 594.128906 634.066406 L 643.925781 634.066406 Z M 643.925781 614.148438 L 594.128906 614.148438 C 577.695312 614.148438 564.25 627.59375 564.25 644.027344 L 564.25 683.863281 C 564.25 689.339844 559.769531 693.824219 554.292969 693.824219 C 548.8125 693.824219 544.332031 689.339844 544.332031 683.863281 L 544.332031 621.21875 C 544.332031 602.195312 554.890625 585.164062 571.820312 576.699219 L 616.339844 554.390625 L 623.90625 554.390625 C 629.386719 554.390625 633.867188 549.910156 633.867188 544.433594 L 633.867188 464.757812 L 613.949219 464.757812 L 613.949219 534.472656 L 504.394531 534.472656 C 498.917969 534.472656 494.433594 529.992188 494.433594 524.511719 C 494.433594 519.035156 498.917969 514.554688 504.394531 514.554688 L 584.070312 514.554688 C 589.546875 514.554688 594.03125 510.070312 594.03125 504.59375 L 594.03125 474.714844 C 594.03125 447.226562 616.339844 424.917969 643.828125 424.917969 C 671.316406 424.917969 693.625 447.226562 693.625 474.714844 L 693.625 564.351562 C 693.625 591.839844 671.316406 614.148438 643.828125 614.148438 Z M 643.925781 614.148438 " fill-opacity="1" fill-rule="nonzero"/></g><g clip-path="url(#d1409af6e1)"><path fill="#ffffff" d="M 295.445312 195.851562 L 321.441406 195.851562 L 305.902344 242.460938 C 304.507812 246.644531 305.902344 251.125 309.488281 253.714844 C 311.183594 255.011719 313.273438 255.609375 315.265625 255.609375 C 317.257812 255.609375 319.449219 254.910156 321.242188 253.617188 L 398.226562 195.851562 L 474.617188 195.851562 C 480.09375 195.851562 484.574219 191.371094 484.574219 185.894531 L 484.574219 106.21875 C 484.574219 100.738281 480.09375 96.257812 474.617188 96.257812 L 295.445312 96.257812 C 289.96875 96.257812 285.488281 100.738281 285.488281 106.21875 L 285.488281 185.894531 C 285.488281 191.371094 289.96875 195.851562 295.445312 195.851562 Z M 305.40625 116.175781 L 464.757812 116.175781 L 464.757812 175.933594 L 395.039062 175.933594 C 392.847656 175.933594 390.757812 176.628906 389.066406 177.925781 L 334.886719 218.558594 L 344.746094 189.078125 C 345.742188 185.992188 345.242188 182.707031 343.351562 180.117188 C 341.457031 177.527344 338.472656 175.933594 335.285156 175.933594 L 305.40625 175.933594 Z M 305.40625 116.175781 " fill-opacity="1" fill-rule="nonzero"/></g><path fill="#ffffff" d="M 335.285156 136.09375 L 355.203125 136.09375 L 355.203125 156.015625 L 335.285156 156.015625 Z M 335.285156 136.09375 " fill-opacity="1" fill-rule="nonzero"/><path fill="#ffffff" d="M 375.121094 136.09375 L 395.039062 136.09375 L 395.039062 156.015625 L 375.121094 156.015625 Z M 375.121094 136.09375 " fill-opacity="1" fill-rule="nonzero"/><path fill="#ffffff" d="M 414.960938 136.09375 L 434.878906 136.09375 L 434.878906 156.015625 L 414.960938 156.015625 Z M 414.960938 136.09375 " fill-opacity="1" fill-rule="nonzero"/></svg>